<svg xmlns="http://www.w3.org/2000/svg" width="771" height="651" preserveAspectRatio="none" style="width:771px;height:651px"><path fill="#FF6153" d="M71.118 49.399c5.26-9.314 12.622-10.18 19.145-1.333 4.047-8.216 10.361-9.987 17.13-3.085 5.575-9.857 14.48-9.55 19.206.805 3.611-8.893 10.193-10.24 16.495-2.701 6.227-10.085 15.677-9.218 20.332 1.533 6.819-7.354 12.119-7.035 16.317 2.528 6.474-10.953 12.537-11.778 20.166-1.075 5.712-9.582 13.634-7.575 18.153 1.182 16.413 2.699 26.019 16.578 12.273 31.157 10.312 17.162 2.364 25.025-14.147 29.186-3.453 9.716-11.336 9.648-17.817 3.373-4.305 10.15-12.801 8.208-18.205 1.164-5.245 8.63-14.188 9.106-18.502-.924-4.399 8.779-11.222 9.695-17.699 2.27-4.13 8.426-11.714 8.601-16.096.24-7.72 10.32-17.625 5.932-21.143-4.32-5.852 8.109-11.383 6.301-15.827-1.409-6.596 10.512-14.932 7.765-20.023-1.52-16.797-1.215-23.927-13.22-13.059-27.548-9.941-16.791-3.123-24.61 13.301-29.523" style="stroke:#000;stroke-width:3"/><path d="M92.928 82.915h2.376v-4.338l4.284-8.262h-2.646l-2.664 5.4h-.324l-2.664-5.4h-2.646l4.284 8.262zm11.038.252c2.664 0 4.68-1.692 4.68-4.572v-.288c0-2.88-2.016-4.572-4.68-4.572s-4.68 1.692-4.68 4.572v.288c0 2.88 2.016 4.572 4.68 4.572m0-2.016c-1.386 0-2.412-.936-2.412-2.61v-.18c0-1.674 1.008-2.61 2.412-2.61s2.412.936 2.412 2.61v.18c0 1.674-1.026 2.61-2.412 2.61m10.48 1.908c1.601 0 2.321-.702 2.61-1.314h.323v1.17h2.232v-8.928h-2.268v4.536c0 1.656-.81 2.628-2.196 2.628-1.224 0-1.908-.666-1.908-2.016v-5.148h-2.268v5.328c0 2.214 1.386 3.744 3.474 3.744m10.839-.144h2.376v-10.44h3.672v-2.16h-9.72v2.16h3.672zm10.156.144c1.602 0 2.322-.702 2.61-1.314h.324v1.17h2.232v-8.928h-2.268v4.536c0 1.656-.81 2.628-2.196 2.628-1.224 0-1.908-.666-1.908-2.016v-5.148h-2.268v5.328c0 2.214 1.386 3.744 3.474 3.744m13.36.108c2.141 0 4.031-1.656 4.031-4.572v-.288c0-2.916-1.872-4.572-4.032-4.572-1.62 0-2.394.648-2.772 1.278h-.324v-4.698h-2.268v12.6h2.232v-1.08h.324c.414.684 1.188 1.332 2.808 1.332m-.685-1.98c-1.386 0-2.448-.918-2.448-2.646v-.18c0-1.728 1.044-2.646 2.448-2.646s2.448.918 2.448 2.646v.18c0 1.728-1.062 2.646-2.448 2.646m11.182 1.98c2.448 0 3.51-1.386 4.014-2.34l-1.854-.972c-.306.684-.828 1.332-2.088 1.332s-2.214-.846-2.268-2.07h6.498v-.774c0-2.736-1.71-4.608-4.338-4.608-2.664 0-4.464 1.8-4.464 4.608v.216c0 2.808 1.818 4.608 4.5 4.608m-2.178-5.742c.162-1.026.9-1.71 2.124-1.71 1.17 0 1.944.684 2.052 1.71zm12.535 5.49h2.448l.684-2.772h4.5l.684 2.772h2.448l-3.312-12.6h-4.14zm3.69-4.968 1.53-6.138h.324l1.53 6.138zm8.896 4.968h2.376v-4.608h2.808c2.304 0 4.032-1.512 4.032-3.87v-.252c0-2.358-1.656-3.87-4.032-3.87h-5.184zm2.376-6.768v-3.672h2.574c1.134 0 1.89.666 1.89 1.746v.18c0 1.08-.774 1.746-1.89 1.746zm8.806 6.768h2.376v-12.6h-2.376z" aria-label="YouTube API" style="font-weight:700;font-size:18px;font-family:&quot;Space Grotesk&quot;"/><rect width="202.969" height="67.968" x="279.75" y="42.702" fill="#FFAE03" rx="18.75" ry="18.75" style="stroke:#000;stroke-width:3"/><path d="M306.678 82.915h2.376v-4.338l4.284-8.262h-2.646l-2.664 5.4h-.324l-2.664-5.4h-2.646l4.284 8.262zm11.024.252c2.664 0 4.68-1.692 4.68-4.572v-.288c0-2.88-2.016-4.572-4.68-4.572s-4.68 1.692-4.68 4.572v.288c0 2.88 2.016 4.572 4.68 4.572m0-2.016c-1.386 0-2.412-.936-2.412-2.61v-.18c0-1.674 1.008-2.61 2.412-2.61s2.412.936 2.412 2.61v.18c0 1.674-1.026 2.61-2.412 2.61m10.466 1.908c1.602 0 2.322-.702 2.61-1.314h.324v1.17h2.232v-8.928h-2.268v4.536c0 1.656-.81 2.628-2.196 2.628-1.224 0-1.908-.666-1.908-2.016v-5.148h-2.268v5.328c0 2.214 1.386 3.744 3.474 3.744m10.825-.144h2.376v-10.44h3.672v-2.16h-9.72v2.16h3.672zm10.142.144c1.602 0 2.322-.702 2.61-1.314h.324v1.17h2.232v-8.928h-2.268v4.536c0 1.656-.81 2.628-2.196 2.628-1.224 0-1.908-.666-1.908-2.016v-5.148h-2.268v5.328c0 2.214 1.386 3.744 3.474 3.744m13.346.108c2.142 0 4.032-1.656 4.032-4.572v-.288c0-2.916-1.872-4.572-4.032-4.572-1.62 0-2.394.648-2.772 1.278h-.324v-4.698h-2.268v12.6h2.232v-1.08h.324c.414.684 1.188 1.332 2.808 1.332m-.684-1.98c-1.386 0-2.448-.918-2.448-2.646v-.18c0-1.728 1.044-2.646 2.448-2.646s2.448.918 2.448 2.646v.18c0 1.728-1.062 2.646-2.448 2.646m11.168 1.98c2.448 0 3.51-1.386 4.014-2.34l-1.854-.972c-.306.684-.828 1.332-2.088 1.332s-2.214-.846-2.268-2.07h6.498v-.774c0-2.736-1.71-4.608-4.338-4.608-2.664 0-4.464 1.8-4.464 4.608v.216c0 2.808 1.818 4.608 4.5 4.608m-2.178-5.742c.162-1.026.9-1.71 2.124-1.71 1.17 0 1.944.684 2.052 1.71zm17.943 5.742c1.944 0 2.52-.846 2.772-1.458h.324v1.206h2.196V76.47h-5.328v2.016h2.988v.18c0 1.404-.756 2.412-2.484 2.412s-2.736-1.152-2.736-2.916v-3.096c0-1.764 1.008-2.88 2.7-2.88s2.52 1.044 2.52 2.376v.144h2.34v-.072c0-2.808-1.764-4.572-4.86-4.572-3.132 0-5.076 1.8-5.076 5.04v3.024c0 3.24 2.052 5.04 4.644 5.04m10.7 0c1.872 0 2.43-1.008 2.592-1.458h.342v.018c0 .72.648 1.188 1.53 1.188h1.512v-1.872h-.72c-.324 0-.504-.18-.504-.54v-3.33c0-2.232-1.476-3.438-3.816-3.438-2.322 0-3.492 1.17-3.924 2.52l2.088.702c.162-.81.666-1.386 1.8-1.386 1.152 0 1.656.612 1.656 1.44v.504h-2.448c-2.016 0-3.456.954-3.456 2.79s1.44 2.862 3.348 2.862m.396-1.836c-.972 0-1.476-.45-1.476-1.098s.504-1.026 1.35-1.026h2.286v.18c0 1.188-.9 1.944-2.16 1.944m10.304 1.584h2.52v-1.872h-1.728c-.324 0-.504-.18-.504-.54v-4.644h2.448v-1.872h-2.448v-2.772h-2.268v2.772h-2.232v1.872h2.232v5.04c0 1.224.792 2.016 1.98 2.016m8.828.252c2.448 0 3.51-1.386 4.014-2.34l-1.854-.972c-.306.684-.828 1.332-2.088 1.332s-2.214-.846-2.268-2.07h6.498v-.774c0-2.736-1.71-4.608-4.338-4.608-2.664 0-4.464 1.8-4.464 4.608v.216c0 2.808 1.818 4.608 4.5 4.608m-2.178-5.742c.162-1.026.9-1.71 2.124-1.71 1.17 0 1.944.684 2.052 1.71zm9.476 5.49h3.762l1.152-7.398h.324l1.152 7.398h3.762l1.26-8.928h-2.25l-.792 7.398h-.324l-1.152-7.398h-3.636l-1.152 7.398h-.324l-.792-7.398h-2.25zm16.46.252c1.871 0 2.43-1.008 2.591-1.458h.342v.018c0 .72.648 1.188 1.53 1.188h1.512v-1.872h-.72c-.324 0-.504-.18-.504-.54v-3.33c0-2.232-1.476-3.438-3.816-3.438-2.322 0-3.492 1.17-3.924 2.52l2.088.702c.162-.81.666-1.386 1.8-1.386 1.152 0 1.656.612 1.656 1.44v.504h-2.448c-2.016 0-3.456.954-3.456 2.79s1.44 2.862 3.348 2.862m.395-1.836c-.972 0-1.476-.45-1.476-1.098s.504-1.026 1.35-1.026h2.286v.18c0 1.188-.9 1.944-2.16 1.944m8.252 5.184h5.616c1.188 0 1.98-.792 1.98-2.016V73.987h-2.268v4.536c0 1.656-.81 2.628-2.196 2.628-1.224 0-1.908-.666-1.908-2.016v-5.148h-2.268v5.328c0 2.214 1.386 3.744 3.474 3.744 1.602 0 2.322-.702 2.61-1.314h.324v2.25c0 .36-.18.54-.504.54h-4.86z" aria-label="YouTube Gateway" style="font-weight:700;font-size:18px;font-family:&quot;Space Grotesk&quot;"/><rect width="162.559" height="67.968" x="535.5" y="42.702" fill="#DEDEDE" rx="18.75" ry="18.75" style="stroke:#000;stroke-width:3"/><path d="M562.248 82.915h2.646l3.798-12.6h-1.566l-3.438 11.682h-.234l-3.438-11.682h-1.566zm9.092-10.17c.63 0 1.098-.45 1.098-1.08 0-.648-.468-1.098-1.098-1.098-.612 0-1.08.45-1.08 1.098 0 .63.468 1.08 1.08 1.08m-.702 10.17h1.422v-8.802h-1.422zm8.137.252c1.836 0 2.754-.828 3.24-1.71h.252v1.458h1.386v-12.6h-1.422v5.184h-.252c-.45-.81-1.368-1.638-3.204-1.638-2.304 0-4.158 1.728-4.158 4.536v.234c0 2.826 1.872 4.536 4.158 4.536m.378-1.26c-1.818 0-3.096-1.224-3.096-3.312v-.162c0-2.088 1.278-3.312 3.096-3.312s3.078 1.224 3.078 3.312v.162c0 2.088-1.278 3.312-3.078 3.312m11.522 1.26c2.358 0 3.402-1.314 3.942-2.43l-1.224-.594c-.432.972-1.17 1.764-2.682 1.764-1.746 0-3.006-1.134-3.06-3.024h7.164v-.648c0-2.682-1.728-4.374-4.23-4.374-2.574 0-4.374 1.836-4.374 4.554v.216c0 2.718 1.782 4.536 4.464 4.536m-3.006-5.454c.216-1.638 1.314-2.592 2.916-2.592 1.584 0 2.682.954 2.79 2.592zm13.7 5.454c2.663 0 4.5-1.782 4.5-4.536v-.234c0-2.754-1.837-4.536-4.5-4.536-2.665 0-4.5 1.782-4.5 4.536v.234c0 2.754 1.835 4.536 4.5 4.536m0-1.278c-1.855 0-3.079-1.278-3.079-3.294v-.162c0-2.016 1.206-3.294 3.078-3.294 1.854 0 3.078 1.278 3.078 3.294v.162c0 2.016-1.224 3.294-3.078 3.294m15.806 1.278c2.736 0 4.518-1.458 4.518-3.69 0-2.214-1.71-3.042-3.888-3.546l-.936-.234c-1.674-.414-2.664-.864-2.664-2.214s1.08-2.106 2.754-2.106c1.728 0 2.988.756 2.988 2.574v.756h1.494v-.756c0-2.574-1.944-3.888-4.482-3.888s-4.248 1.314-4.248 3.438 1.512 2.988 3.744 3.528l.936.234c1.692.396 2.808.864 2.808 2.25 0 1.35-1.062 2.34-3.024 2.34-1.926 0-3.276-.99-3.276-3.096v-.378h-1.494v.378c0 2.952 2.016 4.41 4.77 4.41m10.928 0c2.358 0 3.402-1.314 3.942-2.43l-1.224-.594c-.432.972-1.17 1.764-2.682 1.764-1.746 0-3.006-1.134-3.06-3.024h7.164v-.648c0-2.682-1.728-4.374-4.23-4.374-2.574 0-4.374 1.836-4.374 4.554v.216c0 2.718 1.782 4.536 4.464 4.536m-3.006-5.454c.216-1.638 1.314-2.592 2.916-2.592 1.584 0 2.682.954 2.79 2.592zm9.632 5.202h1.422V77.55c0-1.476.846-2.178 2.124-2.178h1.134v-1.296h-1.044c-1.062 0-1.692.342-1.998 1.116h-.252v-1.08h-1.386zm9.02 0h2.267l3.15-8.802h-1.512l-2.646 7.74h-.252l-2.646-7.74h-1.512zm8.173-10.17c.63 0 1.098-.45 1.098-1.08 0-.648-.468-1.098-1.098-1.098-.612 0-1.08.45-1.08 1.098 0 .63.468 1.08 1.08 1.08m-.702 10.17h1.422v-8.802h-1.422zm8.461.252c2.538 0 3.906-1.584 4.284-3.348l-1.404-.306c-.216 1.35-1.116 2.376-2.862 2.376s-3.078-1.242-3.078-3.294v-.162c0-2.052 1.332-3.294 3.078-3.294s2.628 1.08 2.808 2.376l1.386-.288c-.288-1.782-1.674-3.366-4.212-3.366-2.574 0-4.482 1.728-4.482 4.554v.198c0 2.826 1.908 4.554 4.482 4.554m10.748 0c2.358 0 3.402-1.314 3.942-2.43l-1.224-.594c-.432.972-1.17 1.764-2.682 1.764-1.746 0-3.006-1.134-3.06-3.024h7.164v-.648c0-2.682-1.728-4.374-4.23-4.374-2.574 0-4.374 1.836-4.374 4.554v.216c0 2.718 1.782 4.536 4.464 4.536m-3.006-5.454c.216-1.638 1.314-2.592 2.916-2.592 1.584 0 2.682.954 2.79 2.592z" aria-label="Video Service" style="font-size:18px;font-family:&quot;Space Grotesk&quot;"/><path fill="#FFF" d="M33 222.702v386.523a15 15 0 0 0 15 15h294.326a15 15 0 0 0 15-15V222.702l-15-15H48a15 15 0 0 0-15 15" style="stroke:#000;stroke-width:3"/><path fill="#FFF" d="M342.326 207.702a15 15 0 0 0 15 15" style="stroke:#000;stroke-width:3"/><path d="M177.037 248.167c2.466 0 3.798-1.404 3.798-4.032v-7.452h1.368v-1.368h-5.094v1.368h2.214v7.452c0 1.584-.63 2.646-2.304 2.646-1.656 0-2.484-1.062-2.484-2.646v-.972h-1.494v.972c0 2.61 1.53 4.032 3.996 4.032m11.592 0c2.736 0 4.518-1.458 4.518-3.69 0-2.214-1.71-3.042-3.888-3.546l-.936-.234c-1.674-.414-2.664-.864-2.664-2.214s1.08-2.106 2.754-2.106c1.728 0 2.988.756 2.988 2.574v.756h1.494v-.756c0-2.574-1.944-3.888-4.482-3.888s-4.248 1.314-4.248 3.438 1.512 2.988 3.744 3.528l.936.234c1.692.396 2.808.864 2.808 2.25 0 1.35-1.062 2.34-3.024 2.34-1.926 0-3.276-.99-3.276-3.096v-.378h-1.494v.378c0 2.952 2.016 4.41 4.77 4.41m11.412 0c3.024 0 4.95-1.782 4.95-5.112v-2.88c0-3.33-1.926-5.112-4.95-5.112-3.006 0-4.932 1.782-4.932 5.112v2.88c0 3.33 1.926 5.112 4.932 5.112m0-1.35c-2.16 0-3.42-1.386-3.42-3.708v-2.988c0-2.322 1.26-3.708 3.42-3.708 2.178 0 3.438 1.386 3.438 3.708v2.988c0 2.322-1.26 3.708-3.438 3.708m7.47 1.098h1.494V236.25h.252l4.374 11.664h2.934v-12.6h-1.494v11.646h-.234l-4.392-11.646h-2.934z" aria-label="JSON" style="font-size:18px;font-family:&quot;Space Grotesk&quot;"/><path d="M34.5 260.671h321.326" style="stroke:#000;stroke-width:1.5"/><path d="M195.046 296.113h2.79v-1.242h-2.34q-.486 0-.486-.54v-14.076q0-.54.486-.54h2.34v-1.242h-2.79c-.828 0-1.404.612-1.404 1.422v14.796c0 .81.576 1.422 1.404 1.422" aria-label="[" style="font-size:18px;font-family:&quot;Space Grotesk&quot;"/><path d="M200.527 319.08h2.808v-1.241h-2.34q-.486 0-.486-.54v-5.472c0-.864-.486-1.44-1.332-1.44h-.126v-.252h.126c.846 0 1.332-.576 1.332-1.44v-5.472q0-.54.486-.54h2.34v-1.242h-2.808c-.81 0-1.404.612-1.404 1.422v5.814c0 .594-.306.9-.972.9h-1.548v1.368h1.548c.666 0 .972.306.972.9v5.814c0 .81.594 1.422 1.404 1.422" aria-label="{" style="font-size:18px;font-family:&quot;Space Grotesk&quot;"/><path d="M120.012 329.395h.576c1.044 0 1.548-.504 1.548-1.548v-1.656c0-.72-.522-1.224-1.206-1.224-.702 0-1.224.486-1.224 1.17 0 .666.522 1.152 1.224 1.152h.252v.576c0 .45-.198.648-.648.648h-.522zm3.132 0h.576c1.026 0 1.53-.504 1.53-1.548v-1.656c0-.72-.522-1.224-1.206-1.224-.702 0-1.224.486-1.224 1.17 0 .666.522 1.152 1.224 1.152h.252v.576c0 .45-.198.648-.648.648h-.504zm5.472-1.746c.63 0 1.098-.45 1.098-1.08 0-.648-.468-1.098-1.098-1.098-.612 0-1.08.45-1.08 1.098 0 .63.468 1.08 1.08 1.08m-.702 10.17h1.422v-8.802h-1.422zm8.245.252c1.836 0 2.754-.828 3.24-1.71h.252v1.458h1.386v-12.6h-1.422v5.184h-.252c-.45-.81-1.368-1.638-3.204-1.638-2.304 0-4.158 1.728-4.158 4.536v.234c0 2.826 1.872 4.536 4.158 4.536m.378-1.26c-1.818 0-3.096-1.224-3.096-3.312v-.162c0-2.088 1.278-3.312 3.096-3.312s3.078 1.224 3.078 3.312v.162c0 2.088-1.278 3.312-3.078 3.312m7.452-7.416h.576c1.044 0 1.548-.504 1.548-1.548v-1.656c0-.72-.522-1.224-1.206-1.224-.702 0-1.224.486-1.224 1.17 0 .666.522 1.152 1.224 1.152h.252v.576c0 .45-.198.648-.648.648h-.522zm3.132 0h.576c1.026 0 1.53-.504 1.53-1.548v-1.656c0-.72-.522-1.224-1.206-1.224-.702 0-1.224.486-1.224 1.17 0 .666.522 1.152 1.224 1.152h.252v.576c0 .45-.198.648-.648.648h-.504zm5.544 1.818c.702 0 1.224-.504 1.224-1.224s-.522-1.224-1.224-1.224-1.224.504-1.224 1.224.522 1.224 1.224 1.224m0 6.858c.702 0 1.224-.504 1.224-1.224s-.522-1.224-1.224-1.224-1.224.504-1.224 1.224.522 1.224 1.224 1.224m8.478-8.676h.576c1.044 0 1.548-.504 1.548-1.548v-1.656c0-.72-.522-1.224-1.206-1.224-.702 0-1.224.486-1.224 1.17 0 .666.522 1.152 1.224 1.152h.252v.576c0 .45-.198.648-.648.648h-.522zm3.132 0h.576c1.026 0 1.53-.504 1.53-1.548v-1.656c0-.72-.522-1.224-1.206-1.224-.702 0-1.224.486-1.224 1.17 0 .666.522 1.152 1.224 1.152h.252v.576c0 .45-.198.648-.648.648h-.504zm5.994 8.424h2.43l1.944-7.848h.234l1.944 7.848h2.43l1.764-8.802h-1.44l-1.458 7.848h-.252l-1.926-7.848h-2.358l-1.926 7.848h-.252l-1.458-7.848h-1.44zm12.69-4.356c0 2.754 1.854 4.446 4.158 4.446 1.854 0 2.772-.846 3.204-1.638h.252v3.348q0 .54-.54.54h-5.598v1.26h5.976c1.008 0 1.548-.594 1.548-1.548v-10.854h-1.35v1.458h-.252c-.468-.864-1.386-1.71-3.24-1.71-2.304 0-4.158 1.692-4.158 4.446zm4.536 3.186c-1.818 0-3.096-1.206-3.096-3.24v-.144c0-2.034 1.278-3.24 3.096-3.24s3.078 1.206 3.078 3.24v.144c0 2.034-1.278 3.24-3.078 3.24m11.286 1.422c1.836 0 2.754-.828 3.24-1.71h.252v1.458h1.386v-12.6h-1.422v5.184h-.252c-.45-.81-1.368-1.638-3.204-1.638-2.304 0-4.158 1.728-4.158 4.536v.234c0 2.826 1.872 4.536 4.158 4.536m.378-1.26c-1.818 0-3.096-1.224-3.096-3.312v-.162c0-2.088 1.278-3.312 3.096-3.312s3.078 1.224 3.078 3.312v.162c0 2.088-1.278 3.312-3.078 3.312m6.948 1.008h6.3c2.178 0 3.798-1.224 3.798-3.294v-.18c0-1.764-1.188-2.556-2.088-2.772v-.252c.882-.27 2.07-1.026 2.07-2.79v-.144c0-1.908-1.548-3.168-3.762-3.168h-6.318v1.35h1.764v9.9h-1.764zm3.276-7.038v-4.194h2.916c1.458 0 2.376.792 2.376 2.016v.18c0 1.206-.918 1.998-2.376 1.998zm0 5.67v-4.302h2.862c1.584 0 2.448.792 2.448 2.07v.162c0 1.278-.864 2.07-2.448 2.07zm11.826 1.368h2.646l3.798-12.6h-1.566l-3.438 11.682h-.234l-3.438-11.682h-1.566zm8.442 0h1.512v-12.6h-1.512zm3.636 0h1.764l3.276-5.31h.234l3.294 5.31h1.764l-4.068-6.354 3.996-6.246h-1.764l-3.222 5.184h-.234l-3.204-5.184h-1.782l4.014 6.246zm16.398.252c2.808 0 4.554-1.638 4.554-4.464v-4.392c0-2.628-1.872-4.248-4.5-4.248-2.592 0-4.518 1.62-4.518 4.176v.216c0 2.52 1.854 4.104 4.14 4.104 1.8 0 2.736-.738 3.186-1.458h.234v1.746c0 1.872-1.116 3.006-3.096 3.006-1.926 0-2.88-1.026-2.88-2.502h-1.476c0 2.214 1.584 3.816 4.356 3.816m.054-5.832c-1.8 0-3.042-1.152-3.042-2.934v-.144c0-1.782 1.224-2.88 3.042-2.88s3.042 1.098 3.042 2.88v.144c0 1.782-1.242 2.934-3.042 2.934m7.884-4.59c.63 0 1.098-.45 1.098-1.08 0-.648-.468-1.098-1.098-1.098-.612 0-1.08.45-1.08 1.098 0 .63.468 1.08 1.08 1.08m-.702 10.17h1.422v-8.802h-1.422zm6.246 0h1.422v-7.56h2.772v-1.242h-2.772v-2.034c0-.36.162-.54.54-.54h1.818v-1.224h-2.214c-1.008 0-1.566.594-1.566 1.548v2.25h-2.7v1.242h2.7zm5.293 0h1.566l.972-3.186h5.364l.972 3.186h1.566l-3.888-12.6h-2.664zm2.934-4.554 2.16-7.128h.252l2.16 7.128zm7.848-3.87h.576c1.044 0 1.548-.504 1.548-1.548v-1.656c0-.72-.522-1.224-1.206-1.224-.702 0-1.224.486-1.224 1.17 0 .666.522 1.152 1.224 1.152h.252v.576c0 .45-.198.648-.648.648h-.522zm3.132 0h.576c1.026 0 1.53-.504 1.53-1.548v-1.656c0-.72-.522-1.224-1.206-1.224-.702 0-1.224.486-1.224 1.17 0 .666.522 1.152 1.224 1.152h.252v.576c0 .45-.198.648-.648.648h-.504zM287 340.069h.576c1.044 0 1.548-.504 1.548-1.548v-1.674c0-.702-.522-1.206-1.206-1.206-.702 0-1.224.486-1.224 1.17 0 .666.522 1.134 1.224 1.134h.252v.576c0 .45-.198.648-.648.648H287z" aria-label="&quot;id&quot;: &quot;wgdBVIX9ifA&quot;," style="font-size:18px;font-family:&quot;Space Grotesk&quot;"/><path d="M148.02 352.363h.577c1.044 0 1.548-.504 1.548-1.548v-1.656c0-.72-.522-1.224-1.206-1.224-.702 0-1.224.486-1.224 1.17 0 .666.522 1.152 1.224 1.152h.252v.576c0 .45-.198.648-.648.648h-.522zm3.133 0h.576c1.026 0 1.53-.504 1.53-1.548v-1.656c0-.72-.522-1.224-1.206-1.224-.702 0-1.224.486-1.224 1.17 0 .666.522 1.152 1.224 1.152h.252v.576c0 .45-.198.648-.648.648h-.504zm8.26 8.676c2.16 0 3.546-.972 3.546-2.7 0-1.71-1.458-2.286-3.312-2.61l-.738-.126c-1.116-.198-1.818-.522-1.818-1.368s.738-1.314 1.944-1.314c1.188 0 2.07.468 2.286 1.728l1.332-.342c-.36-1.638-1.638-2.574-3.618-2.574-2.016 0-3.348.936-3.348 2.52s1.35 2.286 3.078 2.592l.738.126c1.278.234 2.052.522 2.052 1.422s-.828 1.458-2.142 1.458c-1.332 0-2.52-.54-2.772-2.268l-1.35.306c.306 2.178 1.926 3.15 4.122 3.15m9.107-.252h2.34v-1.242h-1.962c-.378 0-.522-.18-.522-.54v-5.778h2.88v-1.242h-2.88v-3.132h-1.422v3.132h-2.646v1.242h2.646v6.012c0 .954.558 1.548 1.566 1.548m7.81.252c1.819 0 2.557-.864 2.935-1.566h.216v.09c0 .756.522 1.224 1.314 1.224h1.242v-1.206h-.81c-.324 0-.504-.18-.504-.54v-3.978c0-2.106-1.332-3.33-3.564-3.33-2.214 0-3.402 1.206-3.816 2.682l1.332.432c.27-1.134 1.044-1.89 2.466-1.89 1.458 0 2.178.774 2.178 2.016v.648h-2.97c-1.89 0-3.312.882-3.312 2.664 0 1.764 1.422 2.754 3.294 2.754m.163-1.224c-1.224 0-2.034-.576-2.034-1.566s.81-1.476 1.944-1.476h2.916v.198c0 1.8-1.134 2.844-2.826 2.844m10.277.972h2.34v-1.242h-1.962c-.378 0-.522-.18-.522-.54v-5.778h2.88v-1.242h-2.88v-3.132h-1.422v3.132h-2.646v1.242h2.646v6.012c0 .954.558 1.548 1.566 1.548m5.866-10.17c.63 0 1.098-.45 1.098-1.08 0-.648-.468-1.098-1.098-1.098-.612 0-1.08.45-1.08 1.098 0 .63.468 1.08 1.08 1.08m-.702 10.17h1.422v-8.802h-1.422zm8.081.252c2.16 0 3.546-.972 3.546-2.7 0-1.71-1.458-2.286-3.312-2.61l-.738-.126c-1.116-.198-1.818-.522-1.818-1.368s.738-1.314 1.944-1.314c1.188 0 2.07.468 2.286 1.728l1.332-.342c-.36-1.638-1.638-2.574-3.618-2.574-2.016 0-3.348.936-3.348 2.52s1.35 2.286 3.078 2.592l.738.126c1.278.234 2.052.522 2.052 1.422s-.828 1.458-2.142 1.458c-1.332 0-2.52-.54-2.772-2.268l-1.35.306c.306 2.178 1.926 3.15 4.122 3.15m9.107-.252h2.34v-1.242H209.5c-.378 0-.522-.18-.522-.54v-5.778h2.88v-1.242h-2.88v-3.132h-1.422v3.132h-2.646v1.242h2.646v6.012c0 .954.558 1.548 1.566 1.548m5.867-10.17c.63 0 1.098-.45 1.098-1.08 0-.648-.468-1.098-1.098-1.098-.612 0-1.08.45-1.08 1.098 0 .63.468 1.08 1.08 1.08m-.702 10.17h1.422v-8.802h-1.422zm8.585.252c2.538 0 3.906-1.584 4.284-3.348l-1.404-.306c-.216 1.35-1.116 2.376-2.862 2.376s-3.078-1.242-3.078-3.294v-.162c0-2.052 1.332-3.294 3.078-3.294s2.628 1.08 2.808 2.376l1.386-.288c-.288-1.782-1.674-3.366-4.212-3.366-2.574 0-4.482 1.728-4.482 4.554v.198c0 2.826 1.908 4.554 4.482 4.554m10.384 0c2.16 0 3.546-.972 3.546-2.7 0-1.71-1.458-2.286-3.312-2.61l-.738-.126c-1.116-.198-1.818-.522-1.818-1.368s.738-1.314 1.944-1.314c1.188 0 2.07.468 2.286 1.728l1.332-.342c-.36-1.638-1.638-2.574-3.618-2.574-2.016 0-3.348.936-3.348 2.52s1.35 2.286 3.078 2.592l.738.126c1.278.234 2.052.522 2.052 1.422s-.828 1.458-2.142 1.458c-1.332 0-2.52-.54-2.772-2.268l-1.35.306c.306 2.178 1.926 3.15 4.122 3.15m5.795-8.676h.576c1.044 0 1.548-.504 1.548-1.548v-1.656c0-.72-.522-1.224-1.206-1.224-.702 0-1.224.486-1.224 1.17 0 .666.522 1.152 1.224 1.152h.252v.576c0 .45-.198.648-.648.648h-.522zm3.132 0h.576c1.026 0 1.53-.504 1.53-1.548v-1.656c0-.72-.522-1.224-1.206-1.224-.702 0-1.224.486-1.224 1.17 0 .666.522 1.152 1.224 1.152h.252v.576c0 .45-.198.648-.648.648h-.504zm5.56 1.818c.703 0 1.225-.504 1.225-1.224s-.522-1.224-1.224-1.224-1.224.504-1.224 1.224.522 1.224 1.224 1.224m0 6.858c.703 0 1.225-.504 1.225-1.224s-.522-1.224-1.224-1.224-1.224.504-1.224 1.224.522 1.224 1.224 1.224m11.266 3.978h2.808v-1.242h-2.34q-.486 0-.486-.54v-5.472c0-.864-.486-1.44-1.332-1.44h-.126v-.252h.126c.846 0 1.332-.576 1.332-1.44v-5.472q0-.54.486-.54h2.34v-1.242h-2.808c-.81 0-1.404.612-1.404 1.422v5.814c0 .594-.306.9-.972.9h-1.548v1.368h1.548c.666 0 .972.306.972.9v5.814c0 .81.594 1.422 1.404 1.422" aria-label="&quot;statistics&quot;: {" style="font-size:18px;font-family:&quot;Space Grotesk&quot;"/><path d="M116.781 375.331h.576c1.044 0 1.548-.504 1.548-1.548v-1.656c0-.72-.522-1.224-1.206-1.224-.702 0-1.224.486-1.224 1.17 0 .666.522 1.152 1.224 1.152h.252v.576c0 .45-.198.648-.648.648h-.522zm3.132 0h.576c1.026 0 1.53-.504 1.53-1.548v-1.656c0-.72-.522-1.224-1.206-1.224-.702 0-1.224.486-1.224 1.17 0 .666.522 1.152 1.224 1.152h.252v.576c0 .45-.198.648-.648.648h-.504zm6.913 8.424h2.268l3.15-8.802h-1.512l-2.646 7.74h-.252l-2.646-7.74h-1.512zm8.191-10.17c.63 0 1.098-.45 1.098-1.08 0-.648-.468-1.098-1.098-1.098-.612 0-1.08.45-1.08 1.098 0 .63.468 1.08 1.08 1.08m-.702 10.17h1.422v-8.802h-1.422zm8.461.252c2.358 0 3.402-1.314 3.942-2.43l-1.224-.594c-.432.972-1.17 1.764-2.682 1.764-1.746 0-3.006-1.134-3.06-3.024h7.164v-.648c0-2.682-1.728-4.374-4.23-4.374-2.574 0-4.374 1.836-4.374 4.554v.216c0 2.718 1.782 4.536 4.464 4.536m-3.006-5.454c.216-1.638 1.314-2.592 2.916-2.592 1.584 0 2.682.954 2.79 2.592zm10.693 5.202h2.43l1.944-7.848h.234l1.944 7.848h2.43l1.764-8.802h-1.44l-1.458 7.848h-.252l-1.926-7.848h-2.358l-1.926 7.848h-.252l-1.458-7.848h-1.44zm17.714.252c2.97 0 4.626-1.782 4.626-4.644v-.234h-1.494v.288c0 1.89-.99 3.24-3.132 3.24s-3.402-1.386-3.402-3.726v-2.952c0-2.34 1.26-3.726 3.402-3.726s3.132 1.35 3.132 3.24v.144h1.494v-.09c0-2.862-1.656-4.644-4.626-4.644-2.988 0-4.914 1.782-4.914 5.112v2.88c0 3.33 1.926 5.112 4.914 5.112m11.143 0c2.664 0 4.5-1.782 4.5-4.536v-.234c0-2.754-1.836-4.536-4.5-4.536s-4.5 1.782-4.5 4.536v.234c0 2.754 1.836 4.536 4.5 4.536m0-1.278c-1.854 0-3.078-1.278-3.078-3.294v-.162c0-2.016 1.206-3.294 3.078-3.294 1.854 0 3.078 1.278 3.078 3.294v.162c0 2.016-1.224 3.294-3.078 3.294m10.44 1.188c1.8 0 2.647-.81 3.043-1.656h.252v1.494h1.386v-8.802h-1.422v4.428c0 2.178-1.206 3.294-2.88 3.294-1.494 0-2.43-.756-2.43-2.502v-5.22h-1.422v5.328c0 2.358 1.53 3.636 3.474 3.636m7.67-.162h1.422v-4.428c0-2.178 1.188-3.294 2.88-3.294 1.476 0 2.43.756 2.43 2.502v5.22h1.422v-5.328c0-2.358-1.548-3.636-3.492-3.636-1.8 0-2.646.81-3.024 1.656h-.252v-1.494h-1.386zm14.04 0h2.34v-1.242h-1.961c-.378 0-.522-.18-.522-.54v-5.778h2.88v-1.242h-2.88v-3.132h-1.422v3.132h-2.646v1.242h2.646v6.012c0 .954.558 1.548 1.566 1.548m4.988-8.424h.576c1.044 0 1.548-.504 1.548-1.548v-1.656c0-.72-.522-1.224-1.206-1.224-.702 0-1.224.486-1.224 1.17 0 .666.522 1.152 1.224 1.152h.252v.576c0 .45-.198.648-.648.648h-.522zm3.132 0h.576c1.026 0 1.53-.504 1.53-1.548v-1.656c0-.72-.522-1.224-1.206-1.224-.702 0-1.224.486-1.224 1.17 0 .666.522 1.152 1.224 1.152h.252v.576c0 .45-.198.648-.648.648h-.504zm5.455 1.818c.702 0 1.224-.504 1.224-1.224s-.522-1.224-1.224-1.224-1.224.504-1.224 1.224.522 1.224 1.224 1.224m0 6.858c.702 0 1.224-.504 1.224-1.224s-.522-1.224-1.224-1.224-1.224.504-1.224 1.224.522 1.224 1.224 1.224m14.096-.252h1.458v-2.574h2.16v-1.314h-2.16v-8.712h-2.736l-5.292 8.298v1.728h6.57zm-5.112-3.888v-.216l4.86-7.614h.252v7.83zm14.617 4.14c2.808 0 4.554-1.638 4.554-4.464v-4.392c0-2.628-1.872-4.248-4.5-4.248-2.592 0-4.518 1.62-4.518 4.176v.216c0 2.52 1.854 4.104 4.14 4.104 1.8 0 2.736-.738 3.186-1.458h.234v1.746c0 1.872-1.116 3.006-3.096 3.006-1.926 0-2.88-1.026-2.88-2.502h-1.476c0 2.214 1.584 3.816 4.356 3.816m.054-5.832c-1.8 0-3.042-1.152-3.042-2.934v-.144c0-1.782 1.224-2.88 3.042-2.88s3.042 1.098 3.042 2.88v.144c0 1.782-1.242 2.934-3.042 2.934m6.553 5.58h8.91v-1.314h-7.434v-.306c0-1.656.918-2.142 2.736-2.718l.972-.306c2.286-.72 3.834-1.746 3.834-4.194v-.162c0-2.304-1.818-3.852-4.41-3.852s-4.536 1.53-4.536 4.266v.234h1.44v-.252c0-1.962 1.26-2.934 3.096-2.934 1.728 0 2.952.99 2.952 2.574v.072c0 1.674-1.08 2.448-2.718 2.952l-.99.306c-2.376.738-3.852 1.638-3.852 4.32zm15.499.252c2.592 0 4.518-1.62 4.518-4.176v-.216c0-2.52-1.854-4.104-4.122-4.104-1.8 0-2.754.738-3.186 1.458h-.252v-1.746c0-1.872 1.116-3.006 3.096-3.006 1.926 0 2.898 1.026 2.898 2.502h1.476c0-2.214-1.584-3.816-4.374-3.816-2.808 0-4.554 1.638-4.554 4.464v4.392c0 2.628 1.89 4.248 4.5 4.248m0-1.314c-1.818 0-3.042-1.098-3.042-2.88v-.144c0-1.782 1.242-2.934 3.042-2.934s3.06 1.152 3.06 2.934v.144c0 1.782-1.242 2.88-3.06 2.88m11.035 1.314c2.592 0 4.518-1.62 4.518-4.176v-.216c0-2.52-1.854-4.104-4.122-4.104-1.8 0-2.754.738-3.186 1.458h-.252v-1.746c0-1.872 1.116-3.006 3.096-3.006 1.926 0 2.898 1.026 2.898 2.502h1.476c0-2.214-1.584-3.816-4.374-3.816-2.808 0-4.554 1.638-4.554 4.464v4.392c0 2.628 1.89 4.248 4.5 4.248m0-1.314c-1.818 0-3.042-1.098-3.042-2.88v-.144c0-1.782 1.242-2.934 3.042-2.934s3.06 1.152 3.06 2.934v.144c0 1.782-1.242 2.88-3.06 2.88m10.909 1.314c2.718 0 4.5-1.548 4.5-3.924v-.198c0-2.304-1.782-3.456-3.906-3.456h-.9v-.216l4.698-3.024v-2.034h-8.73v1.314h7.182v.216l-4.806 3.078v1.818h2.052c1.638 0 2.952.702 2.952 2.34v.144c0 1.512-1.134 2.628-3.042 2.628s-3.168-1.134-3.168-2.97v-.324h-1.476v.342c0 2.7 1.944 4.266 4.644 4.266m6.787 1.998h.576c1.044 0 1.548-.504 1.548-1.548v-1.674c0-.702-.522-1.206-1.206-1.206-.702 0-1.224.486-1.224 1.17 0 .666.522 1.134 1.224 1.134h.252v.576c0 .45-.198.648-.648.648h-.522z" aria-label="&quot;viewCount&quot;: 492663," style="font-size:18px;font-family:&quot;Space Grotesk&quot;"/><path d="M205.198 406.976c.702 0 1.224-.504 1.224-1.224s-.522-1.224-1.224-1.224-1.224.504-1.224 1.224.522 1.224 1.224 1.224m3.834 0c.702 0 1.224-.504 1.224-1.224s-.522-1.224-1.224-1.224-1.224.504-1.224 1.224.522 1.224 1.224 1.224m3.834 0c.72 0 1.224-.504 1.224-1.224s-.504-1.224-1.224-1.224c-.702 0-1.224.504-1.224 1.224s.522 1.224 1.224 1.224" aria-label="…" style="font-size:18px;font-family:&quot;Space Grotesk&quot;"/><path d="M198.61 433.922h2.808c.81 0 1.404-.612 1.404-1.422v-5.814c0-.594.306-.9.954-.9h1.566v-1.368h-1.566c-.648 0-.954-.306-.954-.9v-5.814c0-.81-.594-1.422-1.404-1.422h-2.808v1.242h2.34q.486 0 .486.54v5.472c0 .864.486 1.44 1.332 1.44h.126v.252h-.126c-.846 0-1.332.576-1.332 1.44v5.472q0 .54-.486.54h-2.34zm8.784-1.98h.576c1.044 0 1.548-.504 1.548-1.548v-1.674c0-.702-.522-1.206-1.206-1.206-.702 0-1.224.486-1.224 1.17 0 .666.522 1.134 1.224 1.134h.252v.576c0 .45-.198.648-.648.648h-.522z" aria-label="}," style="font-size:18px;font-family:&quot;Space Grotesk&quot;"/><path d="M156.112 444.236h.576c1.044 0 1.548-.504 1.548-1.548v-1.656c0-.72-.522-1.224-1.206-1.224-.702 0-1.224.486-1.224 1.17 0 .666.522 1.152 1.224 1.152h.252v.576c0 .45-.198.648-.648.648h-.522zm3.132 0h.576c1.026 0 1.53-.504 1.53-1.548v-1.656c0-.72-.522-1.224-1.206-1.224-.702 0-1.224.486-1.224 1.17 0 .666.522 1.152 1.224 1.152h.252v.576c0 .45-.198.648-.648.648h-.504zm8.216 8.676c2.16 0 3.546-.972 3.546-2.7 0-1.71-1.458-2.286-3.312-2.61l-.738-.126c-1.116-.198-1.818-.522-1.818-1.368s.738-1.314 1.944-1.314c1.188 0 2.07.468 2.286 1.728l1.332-.342c-.36-1.638-1.638-2.574-3.618-2.574-2.016 0-3.348.936-3.348 2.52s1.35 2.286 3.078 2.592l.738.126c1.278.234 2.052.522 2.052 1.422s-.828 1.458-2.142 1.458c-1.332 0-2.52-.54-2.772-2.268l-1.35.306c.306 2.178 1.926 3.15 4.122 3.15m6.02-.252h1.422v-4.428c0-2.178 1.188-3.294 2.88-3.294 1.476 0 2.43.756 2.43 2.502v5.22h1.422v-5.328c0-2.358-1.548-3.636-3.492-3.636-1.8 0-2.646.81-3.024 1.656h-.252v-1.494h-1.386zm11.816-10.17c.63 0 1.098-.45 1.098-1.08 0-.648-.468-1.098-1.098-1.098-.612 0-1.08.45-1.08 1.098 0 .63.468 1.08 1.08 1.08m-.702 10.17h1.422v-8.802h-1.422zm4.49 3.6h1.423v-4.986h.252c.432.81 1.368 1.638 3.204 1.638 2.304 0 4.158-1.728 4.158-4.536v-.234c0-2.826-1.872-4.536-4.158-4.536-1.836 0-2.772.828-3.24 1.71h-.252v-1.458h-1.386zm4.5-4.608c-1.817 0-3.095-1.224-3.095-3.312v-.162c0-2.088 1.278-3.312 3.096-3.312 1.8 0 3.078 1.224 3.078 3.312v.162c0 2.088-1.26 3.312-3.078 3.312m7.173 4.608h1.422v-4.986h.252c.432.81 1.368 1.638 3.204 1.638 2.304 0 4.158-1.728 4.158-4.536v-.234c0-2.826-1.872-4.536-4.158-4.536-1.836 0-2.772.828-3.24 1.71h-.252v-1.458h-1.386zm4.5-4.608c-1.818 0-3.096-1.224-3.096-3.312v-.162c0-2.088 1.278-3.312 3.096-3.312 1.8 0 3.078 1.224 3.078 3.312v.162c0 2.088-1.26 3.312-3.078 3.312m11.204 1.26c2.358 0 3.402-1.314 3.942-2.43l-1.224-.594c-.432.972-1.17 1.764-2.682 1.764-1.746 0-3.006-1.134-3.06-3.024h7.164v-.648c0-2.682-1.728-4.374-4.23-4.374-2.574 0-4.374 1.836-4.374 4.554v.216c0 2.718 1.782 4.536 4.464 4.536m-3.006-5.454c.216-1.638 1.314-2.592 2.916-2.592 1.584 0 2.682.954 2.79 2.592zm12.59 5.202h2.34v-1.242h-1.962c-.378 0-.522-.18-.522-.54V445.1h2.88v-1.242h-2.88v-3.132h-1.422v3.132h-2.646v1.242h2.646v6.012c0 .954.558 1.548 1.566 1.548m5.049-8.424h.576c1.044 0 1.548-.504 1.548-1.548v-1.656c0-.72-.522-1.224-1.206-1.224-.702 0-1.224.486-1.224 1.17 0 .666.522 1.152 1.224 1.152h.252v.576c0 .45-.198.648-.648.648h-.522zm3.132 0h.576c1.026 0 1.53-.504 1.53-1.548v-1.656c0-.72-.522-1.224-1.206-1.224-.702 0-1.224.486-1.224 1.17 0 .666.522 1.152 1.224 1.152h.252v.576c0 .45-.198.648-.648.648h-.504zm5.516 1.818c.702 0 1.224-.504 1.224-1.224s-.522-1.224-1.224-1.224-1.224.504-1.224 1.224.522 1.224 1.224 1.224m0 6.858c.702 0 1.224-.504 1.224-1.224s-.522-1.224-1.224-1.224-1.224.504-1.224 1.224.522 1.224 1.224 1.224m11.176 3.978h2.808v-1.242h-2.34q-.486 0-.486-.54v-5.472c0-.864-.486-1.44-1.332-1.44h-.126v-.252h.126c.846 0 1.332-.576 1.332-1.44v-5.472q0-.54.486-.54h2.34v-1.242h-2.808c-.81 0-1.404.612-1.404 1.422v5.814c0 .594-.306.9-.972.9h-1.548v1.368h1.548c.666 0 .972.306.972.9v5.814c0 .81.594 1.422 1.404 1.422" aria-label="&quot;snippet&quot;: {" style="font-size:18px;font-family:&quot;Space Grotesk&quot;"/><path d="M84.606 467.204h.576c1.044 0 1.548-.504 1.548-1.548V464c0-.72-.522-1.224-1.206-1.224-.702 0-1.224.486-1.224 1.17 0 .666.522 1.152 1.224 1.152h.252v.576c0 .45-.198.648-.648.648h-.522zm3.132 0h.576c1.026 0 1.53-.504 1.53-1.548V464c0-.72-.522-1.224-1.206-1.224-.702 0-1.224.486-1.224 1.17 0 .666.522 1.152 1.224 1.152h.252v.576c0 .45-.198.648-.648.648h-.504zm4.675 12.024h1.422v-4.986h.252c.432.81 1.368 1.638 3.204 1.638 2.304 0 4.158-1.728 4.158-4.536v-.234c0-2.826-1.872-4.536-4.158-4.536-1.836 0-2.772.828-3.24 1.71H93.8v-1.458h-1.386zm4.5-4.608c-1.818 0-3.096-1.224-3.096-3.312v-.162c0-2.088 1.278-3.312 3.096-3.312 1.8 0 3.078 1.224 3.078 3.312v.162c0 2.088-1.26 3.312-3.078 3.312m10.472 1.17c1.8 0 2.646-.81 3.042-1.656h.252v1.494h1.386v-8.802h-1.422v4.428c0 2.178-1.206 3.294-2.88 3.294-1.494 0-2.43-.756-2.43-2.502v-5.22h-1.422v5.328c0 2.358 1.53 3.636 3.474 3.636m12.541.09c2.286 0 4.158-1.71 4.158-4.536v-.234c0-2.808-1.854-4.536-4.158-4.536-1.836 0-2.772.828-3.204 1.638h-.252v-5.184h-1.422v12.6h1.386v-1.458h.252c.468.882 1.404 1.71 3.24 1.71m-.378-1.26c-1.818 0-3.096-1.224-3.096-3.312v-.162c0-2.088 1.278-3.312 3.096-3.312s3.078 1.224 3.078 3.312v.162c0 2.088-1.278 3.312-3.078 3.312m7.106 1.008h1.422v-12.6h-1.422zm5.125-10.17c.63 0 1.098-.45 1.098-1.08 0-.648-.468-1.098-1.098-1.098-.612 0-1.08.45-1.08 1.098 0 .63.468 1.08 1.08 1.08m-.702 10.17h1.422v-8.802h-1.422zm7.97.252c2.16 0 3.545-.972 3.545-2.7 0-1.71-1.458-2.286-3.312-2.61l-.738-.126c-1.116-.198-1.818-.522-1.818-1.368s.738-1.314 1.944-1.314c1.188 0 2.07.468 2.286 1.728l1.332-.342c-.36-1.638-1.638-2.574-3.618-2.574-2.016 0-3.348.936-3.348 2.52s1.35 2.286 3.078 2.592l.738.126c1.278.234 2.052.522 2.052 1.422s-.828 1.458-2.142 1.458c-1.332 0-2.52-.54-2.772-2.268l-1.35.306c.306 2.178 1.926 3.15 4.122 3.15m5.953-.252h1.422V471.2c0-2.178 1.188-3.294 2.88-3.294 1.476 0 2.43.756 2.43 2.502v5.22h1.422V470.3c0-2.358-1.548-3.636-3.492-3.636-1.782 0-2.61.792-2.988 1.566h-.252v-5.202H145zm15.08.252c2.357 0 3.401-1.314 3.941-2.43l-1.224-.594c-.432.972-1.17 1.764-2.682 1.764-1.746 0-3.006-1.134-3.06-3.024h7.164v-.648c0-2.682-1.728-4.374-4.23-4.374-2.574 0-4.374 1.836-4.374 4.554v.216c0 2.718 1.782 4.536 4.464 4.536m-3.007-5.454c.216-1.638 1.314-2.592 2.916-2.592 1.584 0 2.682.954 2.79 2.592zm13.37 5.454c1.836 0 2.754-.828 3.24-1.71h.252v1.458h1.386v-12.6h-1.422v5.184h-.252c-.45-.81-1.368-1.638-3.204-1.638-2.304 0-4.158 1.728-4.158 4.536v.234c0 2.826 1.872 4.536 4.158 4.536m.378-1.26c-1.818 0-3.096-1.224-3.096-3.312v-.162c0-2.088 1.278-3.312 3.096-3.312s3.078 1.224 3.078 3.312v.162c0 2.088-1.278 3.312-3.078 3.312m6.457 1.008h1.566l.972-3.186h5.364l.972 3.186h1.566l-3.888-12.6h-2.664zm2.934-4.554 2.16-7.128h.252l2.16 7.128zm12.361 4.554h2.34v-1.242h-1.962c-.378 0-.522-.18-.522-.54v-5.778h2.88v-1.242h-2.88v-3.132h-1.422v3.132h-2.646v1.242h2.646v6.012c0 .954.558 1.548 1.566 1.548m4.982-8.424h.576c1.044 0 1.548-.504 1.548-1.548V464c0-.72-.522-1.224-1.206-1.224-.702 0-1.224.486-1.224 1.17 0 .666.522 1.152 1.224 1.152h.252v.576c0 .45-.198.648-.648.648h-.522zm3.132 0h.576c1.026 0 1.53-.504 1.53-1.548V464c0-.72-.522-1.224-1.206-1.224-.702 0-1.224.486-1.224 1.17 0 .666.522 1.152 1.224 1.152h.252v.576c0 .45-.198.648-.648.648h-.504zm5.45 1.818c.701 0 1.223-.504 1.223-1.224s-.522-1.224-1.224-1.224-1.224.504-1.224 1.224.522 1.224 1.224 1.224m0 6.858c.701 0 1.223-.504 1.223-1.224s-.522-1.224-1.224-1.224-1.224.504-1.224 1.224.522 1.224 1.224 1.224m8.288-8.676h.576c1.044 0 1.548-.504 1.548-1.548V464c0-.72-.522-1.224-1.206-1.224-.702 0-1.224.486-1.224 1.17 0 .666.522 1.152 1.224 1.152h.252v.576c0 .45-.198.648-.648.648h-.522zm3.132 0h.576c1.026 0 1.53-.504 1.53-1.548V464c0-.72-.522-1.224-1.206-1.224-.702 0-1.224.486-1.224 1.17 0 .666.522 1.152 1.224 1.152h.252v.576c0 .45-.198.648-.648.648h-.504zm4.135 8.424h8.91v-1.314h-7.434v-.306c0-1.656.918-2.142 2.736-2.718l.972-.306c2.286-.72 3.834-1.746 3.834-4.194v-.162c0-2.304-1.818-3.852-4.41-3.852s-4.536 1.53-4.536 4.266v.234h1.44v-.252c0-1.962 1.26-2.934 3.096-2.934 1.728 0 2.952.99 2.952 2.574v.072c0 1.674-1.08 2.448-2.718 2.952l-.99.306c-2.376.738-3.852 1.638-3.852 4.32zm15.674.252c2.88 0 4.698-1.692 4.698-5.076v-2.952c0-3.348-1.818-5.076-4.698-5.076-2.862 0-4.68 1.728-4.68 5.076v2.952c0 3.384 1.818 5.076 4.68 5.076m0-1.314c-2.142 0-3.222-1.35-3.222-3.69v-3.114c0-2.304 1.116-3.672 3.222-3.672s3.24 1.35 3.24 3.672v3.114c0 2.322-1.08 3.69-3.24 3.69m10.417 1.062h1.458v-12.6h-2.754l-3.006 5.454h1.584l2.448-4.482h.27zm8.348.252c2.772 0 4.482-1.764 4.482-4.32v-.198c0-2.61-1.764-4.176-3.942-4.176-1.746 0-2.61.81-2.97 1.512h-.252v-4.356h6.822v-1.314h-8.28v6.822h1.98c.324-.612.936-1.422 2.376-1.422 1.656 0 2.808 1.152 2.808 2.952v.162c0 1.872-1.134 3.024-3.06 3.024-1.818 0-3.006-1.044-3.006-2.934v-.162h-1.476v.216c0 2.502 1.764 4.194 4.518 4.194m6.781-4.23h5.328v-1.314h-5.328zm12.541 4.23c2.88 0 4.698-1.692 4.698-5.076v-2.952c0-3.348-1.818-5.076-4.698-5.076-2.862 0-4.68 1.728-4.68 5.076v2.952c0 3.384 1.818 5.076 4.68 5.076m0-1.314c-2.142 0-3.222-1.35-3.222-3.69v-3.114c0-2.304 1.116-3.672 3.222-3.672s3.24 1.35 3.24 3.672v3.114c0 2.322-1.08 3.69-3.24 3.69m6.746 1.062h8.91v-1.314h-7.434v-.306c0-1.656.918-2.142 2.736-2.718l.972-.306c2.286-.72 3.834-1.746 3.834-4.194v-.162c0-2.304-1.818-3.852-4.41-3.852s-4.536 1.53-4.536 4.266v.234h1.44v-.252c0-1.962 1.26-2.934 3.096-2.934 1.728 0 2.952.99 2.952 2.574v.072c0 1.674-1.08 2.448-2.718 2.952l-.99.306c-2.376.738-3.852 1.638-3.852 4.32zm11.245-3.978h5.328v-1.314h-5.328zm12.542 4.23c2.88 0 4.698-1.692 4.698-5.076v-2.952c0-3.348-1.818-5.076-4.698-5.076-2.862 0-4.68 1.728-4.68 5.076v2.952c0 3.384 1.818 5.076 4.68 5.076m0-1.314c-2.142 0-3.222-1.35-3.222-3.69v-3.114c0-2.304 1.116-3.672 3.222-3.672s3.24 1.35 3.24 3.672v3.114c0 2.322-1.08 3.69-3.24 3.69m6.745 1.062h8.91v-1.314h-7.434v-.306c0-1.656.918-2.142 2.736-2.718l.972-.306c2.286-.72 3.834-1.746 3.834-4.194v-.162c0-2.304-1.818-3.852-4.41-3.852s-4.536 1.53-4.536 4.266v.234h1.44v-.252c0-1.962 1.26-2.934 3.096-2.934 1.728 0 2.952.99 2.952 2.574v.072c0 1.674-1.08 2.448-2.718 2.952l-.99.306c-2.376.738-3.852 1.638-3.852 4.32zm11.264-8.424h.576c1.044 0 1.548-.504 1.548-1.548V464c0-.72-.522-1.224-1.206-1.224-.702 0-1.224.486-1.224 1.17 0 .666.522 1.152 1.224 1.152h.252v.576c0 .45-.198.648-.648.648h-.522zm3.132 0h.576c1.026 0 1.53-.504 1.53-1.548V464c0-.72-.522-1.224-1.206-1.224-.702 0-1.224.486-1.224 1.17 0 .666.522 1.152 1.224 1.152h.252v.576c0 .45-.198.648-.648.648h-.504zm4.53 10.674h.577c1.044 0 1.548-.504 1.548-1.548v-1.674c0-.702-.522-1.206-1.206-1.206-.702 0-1.224.486-1.224 1.17 0 .666.522 1.134 1.224 1.134h.252v.576c0 .45-.198.648-.648.648h-.522z" aria-label="&quot;publishedAt&quot;: &quot;2015-02-02&quot;," style="font-size:18px;font-family:&quot;Space Grotesk&quot;"/><path d="M205.198 498.848c.702 0 1.224-.504 1.224-1.224s-.522-1.224-1.224-1.224-1.224.504-1.224 1.224.522 1.224 1.224 1.224m3.834 0c.702 0 1.224-.504 1.224-1.224s-.522-1.224-1.224-1.224-1.224.504-1.224 1.224.522 1.224 1.224 1.224m3.834 0c.72 0 1.224-.504 1.224-1.224s-.504-1.224-1.224-1.224c-.702 0-1.224.504-1.224 1.224s.522 1.224 1.224 1.224" aria-label="…" style="font-size:18px;font-family:&quot;Space Grotesk&quot;"/><path d="M198.61 525.794h2.808c.81 0 1.404-.612 1.404-1.422v-5.814c0-.594.306-.9.954-.9h1.566v-1.368h-1.566c-.648 0-.954-.306-.954-.9v-5.814c0-.81-.594-1.422-1.404-1.422h-2.808v1.242h2.34q.486 0 .486.54v5.472c0 .864.486 1.44 1.332 1.44h.126v.252h-.126c-.846 0-1.332.576-1.332 1.44v5.472q0 .54-.486.54h-2.34zm8.784-1.98h.576c1.044 0 1.548-.504 1.548-1.548v-1.674c0-.702-.522-1.206-1.206-1.206-.702 0-1.224.486-1.224 1.17 0 .666.522 1.134 1.224 1.134h.252v.576c0 .45-.198.648-.648.648h-.522z" aria-label="}," style="font-size:18px;font-family:&quot;Space Grotesk&quot;"/><path d="M200.572 544.784c.702 0 1.224-.504 1.224-1.224s-.522-1.224-1.224-1.224-1.224.504-1.224 1.224.522 1.224 1.224 1.224m3.834 0c.702 0 1.224-.504 1.224-1.224s-.522-1.224-1.224-1.224-1.224.504-1.224 1.224.522 1.224 1.224 1.224m3.834 0c.72 0 1.224-.504 1.224-1.224s-.504-1.224-1.224-1.224c-.702 0-1.224.504-1.224 1.224s.522 1.224 1.224 1.224" aria-label="…" style="font-size:18px;font-family:&quot;Space Grotesk&quot;"/><path d="M196.243 571.73h2.808c.81 0 1.404-.611 1.404-1.421v-5.814c0-.594.306-.9.954-.9h1.566v-1.368h-1.566c-.648 0-.954-.306-.954-.9v-5.814c0-.81-.594-1.422-1.404-1.422h-2.808v1.242h2.34q.486 0 .486.54v5.472c0 .864.486 1.44 1.332 1.44h.126v.252h-.126c-.846 0-1.332.576-1.332 1.44v5.472q0 .54-.486.54h-2.34z" aria-label="}" style="font-size:18px;font-family:&quot;Space Grotesk&quot;"/><path d="M192.49 594.699h2.808c.81 0 1.404-.612 1.404-1.422V578.48c0-.81-.594-1.422-1.404-1.422h-2.808v1.242h2.34q.486 0 .486.54v14.076q0 .54-.486.54h-2.34z" aria-label="]" style="font-size:18px;font-family:&quot;Space Grotesk&quot;"/><path fill="#FFF" d="M435 339.702v152.81a15 15 0 0 0 15 15h279.296a15 15 0 0 0 15-15v-152.81l-15-15H450a15 15 0 0 0-15 15" style="stroke:#000;stroke-width:3"/><path fill="#FFF" d="M729.296 324.702a15 15 0 0 0 15 15" style="stroke:#000;stroke-width:3"/><path d="M590.386 369.145h2.808v-1.242h-2.34q-.486 0-.486-.54v-5.472c0-.864-.486-1.44-1.332-1.44h-.126v-.252h.126c.846 0 1.332-.576 1.332-1.44v-5.472q0-.54.486-.54h2.34v-1.242h-2.808c-.81 0-1.404.612-1.404 1.422v5.814c0 .594-.306.9-.972.9h-1.548v1.368h1.548c.666 0 .972.306.972.9v5.814c0 .81.594 1.422 1.404 1.422" aria-label="{" style="font-size:18px;font-family:&quot;Space Grotesk&quot;"/><path d="M523.893 379.459h.576c1.044 0 1.548-.504 1.548-1.548v-1.656c0-.72-.522-1.224-1.206-1.224-.702 0-1.224.486-1.224 1.17 0 .666.522 1.152 1.224 1.152h.252v.576c0 .45-.198.648-.648.648h-.522zm3.132 0h.576c1.026 0 1.53-.504 1.53-1.548v-1.656c0-.72-.522-1.224-1.206-1.224-.702 0-1.224.486-1.224 1.17 0 .666.522 1.152 1.224 1.152h.252v.576c0 .45-.198.648-.648.648h-.504zm6.058 8.424h2.43l1.944-7.848h.234l1.944 7.848h2.43l1.764-8.802h-1.44l-1.458 7.848h-.252l-1.926-7.848h-2.358l-1.926 7.848h-.252l-1.458-7.848h-1.44zm12.754-4.356c0 2.754 1.854 4.446 4.158 4.446 1.854 0 2.772-.846 3.204-1.638h.252v3.348q0 .54-.54.54h-5.598v1.26h5.976c1.008 0 1.548-.594 1.548-1.548V379.08h-1.35v1.458h-.252c-.468-.864-1.386-1.71-3.24-1.71-2.304 0-4.158 1.692-4.158 4.446zm4.536 3.186c-1.818 0-3.096-1.206-3.096-3.24v-.144c0-2.034 1.278-3.24 3.096-3.24s3.078 1.206 3.078 3.24v.144c0 2.034-1.278 3.24-3.078 3.24m11.35 1.422c1.835 0 2.753-.828 3.24-1.71h.251v1.458h1.386v-12.6h-1.422v5.184h-.252c-.45-.81-1.368-1.638-3.204-1.638-2.304 0-4.158 1.728-4.158 4.536v.234c0 2.826 1.872 4.536 4.158 4.536m.377-1.26c-1.818 0-3.096-1.224-3.096-3.312v-.162c0-2.088 1.278-3.312 3.096-3.312s3.078 1.224 3.078 3.312v.162c0 2.088-1.278 3.312-3.078 3.312m7.012 1.008h6.3c2.178 0 3.798-1.224 3.798-3.294v-.18c0-1.764-1.188-2.556-2.088-2.772v-.252c.882-.27 2.07-1.026 2.07-2.79v-.144c0-1.908-1.548-3.168-3.762-3.168h-6.318v1.35h1.764v9.9h-1.764zm3.276-7.038v-4.194h2.916c1.458 0 2.376.792 2.376 2.016v.18c0 1.206-.918 1.998-2.376 1.998zm0 5.67v-4.302h2.862c1.584 0 2.448.792 2.448 2.07v.162c0 1.278-.864 2.07-2.448 2.07zm11.89 1.368h2.646l3.798-12.6h-1.566l-3.438 11.682h-.234l-3.438-11.682h-1.566zm8.505 0h1.512v-12.6h-1.512zm3.7 0h1.764l3.276-5.31h.234l3.294 5.31h1.764l-4.068-6.354 3.996-6.246h-1.764l-3.222 5.184h-.234l-3.204-5.184h-1.782l4.014 6.246zm16.462.252c2.808 0 4.554-1.638 4.554-4.464v-4.392c0-2.628-1.872-4.248-4.5-4.248-2.592 0-4.518 1.62-4.518 4.176v.216c0 2.52 1.854 4.104 4.14 4.104 1.8 0 2.736-.738 3.186-1.458h.234v1.746c0 1.872-1.116 3.006-3.096 3.006-1.926 0-2.88-1.026-2.88-2.502h-1.476c0 2.214 1.584 3.816 4.356 3.816m.054-5.832c-1.8 0-3.042-1.152-3.042-2.934v-.144c0-1.782 1.224-2.88 3.042-2.88s3.042 1.098 3.042 2.88v.144c0 1.782-1.242 2.934-3.042 2.934m7.947-4.59c.63 0 1.098-.45 1.098-1.08 0-.648-.468-1.098-1.098-1.098-.612 0-1.08.45-1.08 1.098 0 .63.468 1.08 1.08 1.08m-.702 10.17h1.422v-8.802h-1.422zm6.31 0h1.422v-7.56h2.772v-1.242h-2.772v-2.034c0-.36.162-.54.54-.54h1.818v-1.224h-2.214c-1.008 0-1.566.594-1.566 1.548v2.25h-2.7v1.242h2.7zm5.356 0h1.566l.972-3.186h5.364l.972 3.186h1.566l-3.888-12.6h-2.664zm2.934-4.554 2.16-7.128h.252l2.16 7.128zm7.911-3.87h.576c1.044 0 1.548-.504 1.548-1.548v-1.656c0-.72-.522-1.224-1.206-1.224-.702 0-1.224.486-1.224 1.17 0 .666.522 1.152 1.224 1.152h.252v.576c0 .45-.198.648-.648.648h-.522zm3.132 0h.576c1.026 0 1.53-.504 1.53-1.548v-1.656c0-.72-.522-1.224-1.206-1.224-.702 0-1.224.486-1.224 1.17 0 .666.522 1.152 1.224 1.152h.252v.576c0 .45-.198.648-.648.648h-.504zm5.608 1.818c.702 0 1.224-.504 1.224-1.224s-.522-1.224-1.224-1.224-1.224.504-1.224 1.224.522 1.224 1.224 1.224m0 6.858c.702 0 1.224-.504 1.224-1.224s-.522-1.224-1.224-1.224-1.224.504-1.224 1.224.522 1.224 1.224 1.224m11.36 3.978h2.807v-1.242h-2.34q-.486 0-.486-.54v-5.472c0-.864-.486-1.44-1.332-1.44h-.126v-.252h.126c.846 0 1.332-.576 1.332-1.44v-5.472q0-.54.486-.54h2.34v-1.242h-2.808c-.81 0-1.404.612-1.404 1.422v5.814c0 .594-.306.9-.972.9h-1.548v1.368h1.548c.666 0 .972.306.972.9v5.814c0 .81.594 1.422 1.404 1.422" aria-label="&quot;wgdBVIX9ifA&quot;: {" style="font-size:18px;font-family:&quot;Space Grotesk&quot;"/><path d="M528.402 402.427h.576c1.044 0 1.548-.504 1.548-1.548v-1.656c0-.72-.522-1.224-1.206-1.224-.702 0-1.224.486-1.224 1.17 0 .666.522 1.152 1.224 1.152h.252v.576c0 .45-.198.648-.648.648h-.522zm3.132 0h.576c1.026 0 1.53-.504 1.53-1.548v-1.656c0-.72-.522-1.224-1.206-1.224-.702 0-1.224.486-1.224 1.17 0 .666.522 1.152 1.224 1.152h.252v.576c0 .45-.198.648-.648.648h-.504zm6.92 8.424h2.269l3.15-8.802h-1.512l-2.646 7.74h-.252l-2.646-7.74h-1.512zm8.2-10.17c.63 0 1.097-.45 1.097-1.08 0-.648-.468-1.098-1.098-1.098-.612 0-1.08.45-1.08 1.098 0 .63.468 1.08 1.08 1.08m-.703 10.17h1.422v-8.802h-1.422zm8.469.252c2.358 0 3.402-1.314 3.942-2.43l-1.224-.594c-.432.972-1.17 1.764-2.682 1.764-1.746 0-3.006-1.134-3.06-3.024h7.164v-.648c0-2.682-1.728-4.374-4.23-4.374-2.574 0-4.374 1.836-4.374 4.554v.216c0 2.718 1.782 4.536 4.464 4.536m-3.006-5.454c.216-1.638 1.314-2.592 2.916-2.592 1.584 0 2.682.954 2.79 2.592zm10.7 5.202h2.43l1.944-7.848h.234l1.944 7.848h2.43l1.764-8.802h-1.44l-1.458 7.848h-.252l-1.926-7.848h-2.358l-1.926 7.848h-.252l-1.458-7.848h-1.44zm16.677.252c2.16 0 3.546-.972 3.546-2.7 0-1.71-1.458-2.286-3.312-2.61l-.738-.126c-1.116-.198-1.818-.522-1.818-1.368s.738-1.314 1.944-1.314c1.188 0 2.07.468 2.286 1.728l1.332-.342c-.36-1.638-1.638-2.574-3.618-2.574-2.016 0-3.348.936-3.348 2.52s1.35 2.286 3.078 2.592l.738.126c1.278.234 2.052.522 2.052 1.422s-.828 1.458-2.142 1.458c-1.332 0-2.52-.54-2.772-2.268l-1.35.306c.306 2.178 1.926 3.15 4.122 3.15m5.696-8.676h.576c1.044 0 1.548-.504 1.548-1.548v-1.656c0-.72-.522-1.224-1.206-1.224-.702 0-1.224.486-1.224 1.17 0 .666.522 1.152 1.224 1.152h.252v.576c0 .45-.198.648-.648.648h-.522zm3.132 0h.576c1.026 0 1.53-.504 1.53-1.548v-1.656c0-.72-.522-1.224-1.206-1.224-.702 0-1.224.486-1.224 1.17 0 .666.522 1.152 1.224 1.152h.252v.576c0 .45-.198.648-.648.648h-.504zm5.463 1.818c.702 0 1.224-.504 1.224-1.224s-.522-1.224-1.224-1.224-1.224.504-1.224 1.224.522 1.224 1.224 1.224m0 6.858c.702 0 1.224-.504 1.224-1.224s-.522-1.224-1.224-1.224-1.224.504-1.224 1.224.522 1.224 1.224 1.224m14.11-.252h1.459v-2.574h2.16v-1.314h-2.16v-8.712h-2.736l-5.292 8.298v1.728h6.57zm-5.111-3.888v-.216l4.86-7.614h.252v7.83zm14.624 4.14c2.808 0 4.554-1.638 4.554-4.464v-4.392c0-2.628-1.872-4.248-4.5-4.248-2.592 0-4.518 1.62-4.518 4.176v.216c0 2.52 1.854 4.104 4.14 4.104 1.8 0 2.736-.738 3.186-1.458h.234v1.746c0 1.872-1.116 3.006-3.096 3.006-1.926 0-2.88-1.026-2.88-2.502h-1.476c0 2.214 1.584 3.816 4.356 3.816m.054-5.832c-1.8 0-3.042-1.152-3.042-2.934v-.144c0-1.782 1.224-2.88 3.042-2.88s3.042 1.098 3.042 2.88v.144c0 1.782-1.242 2.934-3.042 2.934m6.56 5.58h8.91v-1.314h-7.433v-.306c0-1.656.918-2.142 2.736-2.718l.972-.306c2.286-.72 3.834-1.746 3.834-4.194v-.162c0-2.304-1.818-3.852-4.41-3.852s-4.536 1.53-4.536 4.266v.234h1.44v-.252c0-1.962 1.26-2.934 3.096-2.934 1.728 0 2.952.99 2.952 2.574v.072c0 1.674-1.08 2.448-2.718 2.952l-.99.306c-2.376.738-3.852 1.638-3.852 4.32zm15.507.252c2.592 0 4.518-1.62 4.518-4.176v-.216c0-2.52-1.854-4.104-4.122-4.104-1.8 0-2.754.738-3.186 1.458h-.252v-1.746c0-1.872 1.116-3.006 3.096-3.006 1.926 0 2.898 1.026 2.898 2.502h1.476c0-2.214-1.584-3.816-4.374-3.816-2.808 0-4.554 1.638-4.554 4.464v4.392c0 2.628 1.89 4.248 4.5 4.248m0-1.314c-1.818 0-3.042-1.098-3.042-2.88v-.144c0-1.782 1.242-2.934 3.042-2.934s3.06 1.152 3.06 2.934v.144c0 1.782-1.242 2.88-3.06 2.88m11.043 1.314c2.592 0 4.518-1.62 4.518-4.176v-.216c0-2.52-1.854-4.104-4.122-4.104-1.8 0-2.754.738-3.186 1.458h-.252v-1.746c0-1.872 1.116-3.006 3.096-3.006 1.926 0 2.898 1.026 2.898 2.502h1.476c0-2.214-1.584-3.816-4.374-3.816-2.808 0-4.554 1.638-4.554 4.464v4.392c0 2.628 1.89 4.248 4.5 4.248m0-1.314c-1.818 0-3.042-1.098-3.042-2.88v-.144c0-1.782 1.242-2.934 3.042-2.934s3.06 1.152 3.06 2.934v.144c0 1.782-1.242 2.88-3.06 2.88m10.916 1.314c2.718 0 4.5-1.548 4.5-3.924v-.198c0-2.304-1.782-3.456-3.906-3.456h-.9v-.216l4.698-3.024v-2.034h-8.73v1.314h7.182v.216l-4.806 3.078v1.818h2.052c1.638 0 2.952.702 2.952 2.34v.144c0 1.512-1.134 2.628-3.042 2.628s-3.168-1.134-3.168-2.97v-.324h-1.476v.342c0 2.7 1.944 4.266 4.644 4.266m6.795 1.998h.576c1.044 0 1.548-.504 1.548-1.548v-1.674c0-.702-.522-1.206-1.206-1.206-.702 0-1.224.486-1.224 1.17 0 .666.522 1.134 1.224 1.134h.252v.576c0 .45-.198.648-.648.648h-.522z" aria-label="&quot;views&quot;: 492663," style="font-size:18px;font-family:&quot;Space Grotesk&quot;"/><path d="M477.354 425.395h.576c1.044 0 1.548-.504 1.548-1.548v-1.656c0-.72-.522-1.224-1.206-1.224-.702 0-1.224.486-1.224 1.17 0 .666.522 1.152 1.224 1.152h.252v.576c0 .45-.198.648-.648.648h-.522zm3.132 0h.576c1.026 0 1.53-.504 1.53-1.548v-1.656c0-.72-.522-1.224-1.206-1.224-.702 0-1.224.486-1.224 1.17 0 .666.522 1.152 1.224 1.152h.252v.576c0 .45-.198.648-.648.648h-.504zm4.74 12.024h1.422v-4.986h.252c.432.81 1.368 1.638 3.204 1.638 2.304 0 4.158-1.728 4.158-4.536v-.234c0-2.826-1.872-4.536-4.158-4.536-1.836 0-2.772.828-3.24 1.71h-.252v-1.458h-1.386zm4.5-4.608c-1.818 0-3.096-1.224-3.096-3.312v-.162c0-2.088 1.278-3.312 3.096-3.312 1.8 0 3.078 1.224 3.078 3.312v.162c0 2.088-1.26 3.312-3.078 3.312m10.536 1.17c1.8 0 2.646-.81 3.042-1.656h.252v1.494h1.386v-8.802h-1.422v4.428c0 2.178-1.206 3.294-2.88 3.294-1.494 0-2.43-.756-2.43-2.502v-5.22h-1.422v5.328c0 2.358 1.53 3.636 3.474 3.636m12.606.09c2.286 0 4.158-1.71 4.158-4.536v-.234c0-2.808-1.854-4.536-4.158-4.536-1.836 0-2.772.828-3.204 1.638h-.252v-5.184h-1.422v12.6h1.386v-1.458h.252c.468.882 1.404 1.71 3.24 1.71m-.378-1.26c-1.818 0-3.096-1.224-3.096-3.312v-.162c0-2.088 1.278-3.312 3.096-3.312s3.078 1.224 3.078 3.312v.162c0 2.088-1.278 3.312-3.078 3.312m7.17 1.008h1.421v-12.6h-1.422zm5.19-10.17c.63 0 1.097-.45 1.097-1.08 0-.648-.468-1.098-1.098-1.098-.612 0-1.08.45-1.08 1.098 0 .63.468 1.08 1.08 1.08m-.703 10.17h1.422v-8.802h-1.422zm8.034.252c2.16 0 3.546-.972 3.546-2.7 0-1.71-1.458-2.286-3.312-2.61l-.738-.126c-1.116-.198-1.818-.522-1.818-1.368s.738-1.314 1.944-1.314c1.188 0 2.07.468 2.286 1.728l1.332-.342c-.36-1.638-1.638-2.574-3.618-2.574-2.016 0-3.348.936-3.348 2.52s1.35 2.286 3.078 2.592l.738.126c1.278.234 2.052.522 2.052 1.422s-.828 1.458-2.142 1.458c-1.332 0-2.52-.54-2.772-2.268l-1.35.306c.306 2.178 1.926 3.15 4.122 3.15m6.018-.252h1.422v-4.428c0-2.178 1.188-3.294 2.88-3.294 1.476 0 2.43.756 2.43 2.502v5.22h1.422v-5.328c0-2.358-1.548-3.636-3.492-3.636-1.782 0-2.61.792-2.988 1.566h-.252v-5.202h-1.422zm15.144.252c2.358 0 3.402-1.314 3.942-2.43l-1.224-.594c-.432.972-1.17 1.764-2.682 1.764-1.746 0-3.006-1.134-3.06-3.024h7.164v-.648c0-2.682-1.728-4.374-4.23-4.374-2.574 0-4.374 1.836-4.374 4.554v.216c0 2.718 1.782 4.536 4.464 4.536m-3.006-5.454c.216-1.638 1.314-2.592 2.916-2.592 1.584 0 2.682.954 2.79 2.592zm13.434 5.454c1.836 0 2.754-.828 3.24-1.71h.252v1.458h1.386v-12.6h-1.422v5.184h-.252c-.45-.81-1.368-1.638-3.204-1.638-2.304 0-4.158 1.728-4.158 4.536v.234c0 2.826 1.872 4.536 4.158 4.536m.378-1.26c-1.818 0-3.096-1.224-3.096-3.312v-.162c0-2.088 1.278-3.312 3.096-3.312s3.078 1.224 3.078 3.312v.162c0 2.088-1.278 3.312-3.078 3.312m7.422-7.416h.576c1.044 0 1.548-.504 1.548-1.548v-1.656c0-.72-.522-1.224-1.206-1.224-.702 0-1.224.486-1.224 1.17 0 .666.522 1.152 1.224 1.152h.252v.576c0 .45-.198.648-.648.648h-.522zm3.132 0h.576c1.026 0 1.53-.504 1.53-1.548v-1.656c0-.72-.522-1.224-1.206-1.224-.702 0-1.224.486-1.224 1.17 0 .666.522 1.152 1.224 1.152h.252v.576c0 .45-.198.648-.648.648h-.504zm5.513 1.818c.702 0 1.224-.504 1.224-1.224s-.522-1.224-1.224-1.224-1.224.504-1.224 1.224.522 1.224 1.224 1.224m0 6.858c.702 0 1.224-.504 1.224-1.224s-.522-1.224-1.224-1.224-1.224.504-1.224 1.224.522 1.224 1.224 1.224m7.914-.252h4.914c3.312 0 5.202-1.638 5.202-5.13v-2.34c0-3.474-1.89-5.13-5.202-5.13h-4.914v1.35h1.764v9.9h-1.764zm3.276-1.368v-9.846h1.638c2.43 0 3.708 1.134 3.708 3.69v2.466c0 2.538-1.278 3.69-3.708 3.69zm12.084 1.62c1.818 0 2.556-.864 2.934-1.566h.216v.09c0 .756.522 1.224 1.314 1.224h1.242v-1.206h-.81c-.324 0-.504-.18-.504-.54v-3.978c0-2.106-1.332-3.33-3.564-3.33-2.214 0-3.402 1.206-3.816 2.682l1.332.432c.27-1.134 1.044-1.89 2.466-1.89 1.458 0 2.178.774 2.178 2.016v.648h-2.97c-1.89 0-3.312.882-3.312 2.664 0 1.764 1.422 2.754 3.294 2.754m.162-1.224c-1.224 0-2.034-.576-2.034-1.566s.81-1.476 1.944-1.476h2.916v.198c0 1.8-1.134 2.844-2.826 2.844m10.23.972h2.34v-1.242h-1.962c-.378 0-.522-.18-.522-.54v-5.778h2.88v-1.242h-2.88v-3.132h-1.422v3.132h-2.646v1.242h2.646v6.012c0 .954.558 1.548 1.566 1.548m8.826.252c2.358 0 3.402-1.314 3.942-2.43l-1.224-.594c-.432.972-1.17 1.764-2.682 1.764-1.746 0-3.006-1.134-3.06-3.024h7.164v-.648c0-2.682-1.728-4.374-4.23-4.374-2.574 0-4.374 1.836-4.374 4.554v.216c0 2.718 1.782 4.536 4.464 4.536m-3.006-5.454c.216-1.638 1.314-2.592 2.916-2.592 1.584 0 2.682.954 2.79 2.592zm14.855 9.432v-1.242c-2.88-.036-4.176-1.548-4.176-4.752v-5.652c0-3.204 1.296-4.716 4.176-4.752v-1.242c-3.474 0-5.562 1.746-5.562 5.904v5.832c0 4.158 2.088 5.904 5.562 5.904m1.122-4.23h8.91v-1.314h-7.434v-.306c0-1.656.918-2.142 2.736-2.718l.972-.306c2.286-.72 3.834-1.746 3.834-4.194v-.162c0-2.304-1.818-3.852-4.41-3.852s-4.536 1.53-4.536 4.266v.234h1.44v-.252c0-1.962 1.26-2.934 3.096-2.934 1.728 0 2.952.99 2.952 2.574v.072c0 1.674-1.08 2.448-2.718 2.952l-.99.306c-2.376.738-3.852 1.638-3.852 4.32zm15.738.252c2.88 0 4.698-1.692 4.698-5.076v-2.952c0-3.348-1.818-5.076-4.698-5.076-2.862 0-4.68 1.728-4.68 5.076v2.952c0 3.384 1.818 5.076 4.68 5.076m0-1.314c-2.142 0-3.222-1.35-3.222-3.69v-3.114c0-2.304 1.116-3.672 3.222-3.672s3.24 1.35 3.24 3.672v3.114c0 2.322-1.08 3.69-3.24 3.69m10.482 1.062h1.458v-12.6h-2.754l-3.006 5.454h1.584l2.448-4.482h.27zm8.412.252c2.772 0 4.482-1.764 4.482-4.32v-.198c0-2.61-1.764-4.176-3.942-4.176-1.746 0-2.61.81-2.97 1.512h-.252v-4.356h6.822v-1.314h-8.28v6.822h1.98c.324-.612.936-1.422 2.376-1.422 1.656 0 2.808 1.152 2.808 2.952v.162c0 1.872-1.134 3.024-3.06 3.024-1.818 0-3.006-1.044-3.006-2.934v-.162h-1.476v.216c0 2.502 1.764 4.194 4.518 4.194m6.774 1.998h.576c1.044 0 1.548-.504 1.548-1.548v-1.674c0-.702-.522-1.206-1.206-1.206-.702 0-1.224.486-1.224 1.17 0 .666.522 1.134 1.224 1.134h.252v.576c0 .45-.198.648-.648.648h-.522zm8.31-2.25h8.91v-1.314h-7.435v-.306c0-1.656.918-2.142 2.736-2.718l.972-.306c2.286-.72 3.834-1.746 3.834-4.194v-.162c0-2.304-1.818-3.852-4.41-3.852s-4.536 1.53-4.536 4.266v.234h1.44v-.252c0-1.962 1.26-2.934 3.096-2.934 1.728 0 2.952.99 2.952 2.574v.072c0 1.674-1.08 2.448-2.718 2.952l-.99.306c-2.376.738-3.852 1.638-3.852 4.32zm11.327 2.25h.576c1.044 0 1.548-.504 1.548-1.548v-1.674c0-.702-.522-1.206-1.206-1.206-.702 0-1.224.486-1.224 1.17 0 .666.522 1.134 1.224 1.134h.252v.576c0 .45-.198.648-.648.648h-.522zm8.31-2.25h8.91v-1.314h-7.434v-.306c0-1.656.918-2.142 2.736-2.718l.972-.306c2.286-.72 3.834-1.746 3.834-4.194v-.162c0-2.304-1.818-3.852-4.41-3.852s-4.536 1.53-4.536 4.266v.234h1.44v-.252c0-1.962 1.26-2.934 3.096-2.934 1.728 0 2.952.99 2.952 2.574v.072c0 1.674-1.08 2.448-2.718 2.952l-.99.306c-2.376.738-3.852 1.638-3.852 4.32zm10.104 4.23c3.492 0 5.58-1.746 5.58-5.904v-5.832c0-4.158-2.088-5.904-5.58-5.904v1.242c2.88.036 4.194 1.548 4.194 4.752v5.652c0 3.204-1.314 4.716-4.194 4.752z" aria-label="&quot;published&quot;: Date(2015, 2, 2)" style="font-size:18px;font-family:&quot;Space Grotesk&quot;"/><path d="M590.728 461.017h2.808c.81 0 1.404-.612 1.404-1.422v-5.814c0-.594.306-.9.954-.9h1.566v-1.368h-1.566c-.648 0-.954-.306-.954-.9V444.8c0-.81-.594-1.422-1.404-1.422h-2.808v1.242h2.34q.486 0 .486.54v5.472c0 .864.486 1.44 1.332 1.44h.126v.252h-.126c-.846 0-1.332.576-1.332 1.44v5.472q0 .54-.486.54h-2.34zM586.102 483.985h2.808c.81 0 1.404-.612 1.404-1.422v-5.814c0-.594.306-.9.954-.9h1.566v-1.368h-1.566c-.648 0-.954-.306-.954-.9v-5.814c0-.81-.594-1.422-1.404-1.422h-2.808v1.242h2.34q.486 0 .486.54v5.472c0 .864.486 1.44 1.332 1.44h.126v.252h-.126c-.846 0-1.332.576-1.332 1.44v5.472q0 .54-.486.54h-2.34z" aria-label="}" style="font-size:18px;font-family:&quot;Space Grotesk&quot;"/><g fill="none"><path d="M253.815 76.452h25.395" style="stroke:#000;stroke-width:3;stroke-dasharray:7,7"/><path d="m226.815 76.452 27 9v-18z" style="stroke:#000;stroke-width:3"/></g><path fill="none" d="M148.725 117.897c3.69 23.61 6.806 43.659 12.13 77.799" style="stroke:#000;stroke-width:3"/><path d="m162.705 207.552 2.597-12.55-8.893 1.387z" style="stroke:#000;stroke-width:3"/><path fill="none" d="M309.375 207.627c21-38.025 34.666-62.771 47.986-86.876" style="stroke:#000;stroke-width:3"/><path d="m363.165 110.247-9.743 8.327 7.878 4.353z" style="stroke:#000;stroke-width:3"/><path fill="none" d="M400.995 110.247c30.27 48.885 82.527 133.303 126.402 204.148" style="stroke:#000;stroke-width:3"/><path d="m533.715 324.597-2.492-12.57-7.652 4.738z" style="stroke:#000;stroke-width:3"/><path fill="none" d="M612.947 122.21c-3.915 48.884-10.547 131.542-16.217 202.387" style="stroke:#000;stroke-width:3"/><path d="m613.905 110.247-5.444 11.603 8.972.718z" style="stroke:#000;stroke-width:3"/><g fill="none"><path d="M509.655 76.452h25.8" style="stroke:#000;stroke-width:3;stroke-dasharray:7,7"/><path d="m482.655 76.452 27 9v-18z" style="stroke:#000;stroke-width:3"/></g></svg>