<svg xmlns="http://www.w3.org/2000/svg" width="1092" height="439" fill="none"><path fill="#fff" d="M0 0h1092v439H0z"/><g filter="url(#a)"><path fill="#fff" d="M46 32h1000v300H46z"/></g><path fill="#FFAE03" d="M946 32v300H796V32z"/><path fill="#FF6153" d="M796 32v300H646V32z"/><path fill="#DEDEDE" d="M46 32h200v300H46z"/><path fill="#000" d="M946 32h100v300H946z"/><path fill="#2D4E44" d="M1046 32v300h-33V32z"/><text xml:space="preserve" fill="#000" font-family="'Space Grotesk'" font-size="20" font-weight="bold" letter-spacing="0em" style="white-space:pre"><tspan x="111.875" y="369.92"> </tspan></text><path d="M56.2 396.2c2.88 0 5.02-1.8 5.02-4.64v-.24c0-2.8-2.06-4.56-4.58-4.56-2 0-3.06.82-3.54 1.62h-.28v-1.94c0-2.08 1.24-3.34 3.44-3.34 2.14 0 3.22 1.14 3.22 2.78h1.64c0-2.46-1.76-4.24-4.86-4.24-3.12 0-5.06 1.82-5.06 4.96v4.88c0 2.92 2.1 4.72 5 4.72m0-1.46c-2.02 0-3.38-1.22-3.38-3.2v-.16c0-1.98 1.38-3.26 3.38-3.26s3.4 1.28 3.4 3.26v.16c0 1.98-1.38 3.2-3.4 3.2m12.44 1.46c3.2 0 5.22-1.88 5.22-5.64v-3.28c0-3.72-2.02-5.64-5.22-5.64-3.18 0-5.2 1.92-5.2 5.64v3.28c0 3.76 2.02 5.64 5.2 5.64m0-1.46c-2.38 0-3.58-1.5-3.58-4.1v-3.46c0-2.56 1.24-4.08 3.58-4.08s3.6 1.5 3.6 4.08v3.46c0 2.58-1.2 4.1-3.6 4.1m12.86 1.46 11.12-13.7-1.06-.86-11.14 13.7zm1.18-8.1c1.92 0 3.18-1.22 3.18-3.16v-.12c0-1.94-1.26-3.16-3.18-3.16-1.94 0-3.18 1.22-3.18 3.16v.12c0 1.94 1.24 3.16 3.18 3.16m0-1.16c-1.14 0-1.84-.78-1.84-1.94v-.24c0-1.16.7-1.94 1.84-1.94 1.12 0 1.84.78 1.84 1.94v.24c0 1.16-.72 1.94-1.84 1.94m7.7 9.24c1.92 0 3.18-1.22 3.18-3.16v-.12c0-1.94-1.28-3.16-3.18-3.16-1.94 0-3.2 1.22-3.2 3.16v.12c0 1.94 1.26 3.16 3.2 3.16m0-1.16c-1.14 0-1.84-.78-1.84-1.94v-.24c0-1.16.7-1.94 1.84-1.94 1.12 0 1.82.78 1.82 1.94v.24c0 1.16-.7 1.94-1.82 1.94" aria-label="60 %" style="font-size:20px;font-family:&quot;Space Grotesk&quot;;letter-spacing:0;white-space:pre;fill:#000"/><path d="M51.32 369.92h2.64v-5.12h3.12c2.56 0 4.48-1.68 4.48-4.3v-.28c0-2.62-1.84-4.3-4.48-4.3h-5.76zm2.64-7.52v-4.08h2.86c1.26 0 2.1.74 2.1 1.94v.2c0 1.2-.86 1.94-2.1 1.94zm9.52 7.52H66v-5.64c0-1.4.92-2.08 2.2-2.08h1.24v-2.24h-1.2c-.92 0-1.64.36-1.92 1.16h-.36V360h-2.48zm9.18-11.08c.92 0 1.62-.64 1.62-1.6s-.7-1.6-1.62-1.6-1.62.64-1.62 1.6.7 1.6 1.62 1.6m-1.26 11.08h2.52V360H71.4Zm5.32 0h2.52v-5.86c0-1.36.64-2.12 1.8-2.12 1 0 1.6.56 1.6 1.64v6.34h2.52v-5.86c0-1.36.64-2.12 1.8-2.12 1 0 1.6.56 1.6 1.64v6.34h2.52v-6.52c0-2.4-1.48-3.56-3.32-3.56-1.52 0-2.28.64-2.72 1.48h-.36c-.46-.88-1.26-1.48-2.68-1.48-1.32 0-2.1.58-2.44 1.24h-.36V360h-2.48zm20.16.28c2.08 0 2.7-1.12 2.88-1.62h.38v.02c0 .8.72 1.32 1.7 1.32h1.68v-2.08h-.8c-.36 0-.56-.2-.56-.6v-3.7c0-2.48-1.64-3.82-4.24-3.82-2.58 0-3.88 1.3-4.36 2.8l2.32.78c.18-.9.74-1.54 2-1.54 1.28 0 1.84.68 1.84 1.6v.56H97c-2.24 0-3.84 1.06-3.84 3.1s1.6 3.18 3.72 3.18m.44-2.04c-1.08 0-1.64-.5-1.64-1.22s.56-1.14 1.5-1.14h2.54v.2c0 1.32-1 2.16-2.4 2.16m8.04 1.76h2.52v-5.64c0-1.4.92-2.08 2.2-2.08h1.24v-2.24h-1.2c-.92 0-1.64.36-1.92 1.16h-.36V360h-2.48zm9 4h6.24c1.32 0 2.2-.88 2.2-2.24V360h-2.52v5.04c0 1.84-.9 2.92-2.44 2.92-1.36 0-2.12-.74-2.12-2.24V360h-2.52v5.92c0 2.46 1.54 4.16 3.86 4.16 1.78 0 2.58-.78 2.9-1.46h.36v2.5c0 .4-.2.6-.56.6h-5.4z" aria-label="Primary" style="font-weight:700;font-size:20px;font-family:&quot;Space Grotesk&quot;;letter-spacing:0;white-space:pre;fill:#000"/><text xml:space="preserve" fill="#000" font-family="'Space Grotesk'" font-size="20" font-weight="bold" letter-spacing="0em" style="white-space:pre"><tspan x="742.207" y="369.92"> </tspan></text><path d="M656.06 396.2c3.02 0 5-1.72 5-4.36v-.22c0-2.56-1.98-3.84-4.34-3.84h-1v-.24l5.22-3.36v-2.26h-9.7v1.46h7.98v.24l-5.34 3.42v2.02h2.28c1.82 0 3.28.78 3.28 2.6v.16c0 1.68-1.26 2.92-3.38 2.92s-3.52-1.26-3.52-3.3v-.36h-1.64v.38c0 3 2.16 4.74 5.16 4.74m12.42 0c3.2 0 5.22-1.88 5.22-5.64v-3.28c0-3.72-2.02-5.64-5.22-5.64-3.18 0-5.2 1.92-5.2 5.64v3.28c0 3.76 2.02 5.64 5.2 5.64m0-1.46c-2.38 0-3.58-1.5-3.58-4.1v-3.46c0-2.56 1.24-4.08 3.58-4.08s3.6 1.5 3.6 4.08v3.46c0 2.58-1.2 4.1-3.6 4.1m12.86 1.46 11.12-13.7-1.06-.86-11.14 13.7zm1.18-8.1c1.92 0 3.18-1.22 3.18-3.16v-.12c0-1.94-1.26-3.16-3.18-3.16-1.94 0-3.18 1.22-3.18 3.16v.12c0 1.94 1.24 3.16 3.18 3.16m0-1.16c-1.14 0-1.84-.78-1.84-1.94v-.24c0-1.16.7-1.94 1.84-1.94 1.12 0 1.84.78 1.84 1.94v.24c0 1.16-.72 1.94-1.84 1.94m7.7 9.24c1.92 0 3.18-1.22 3.18-3.16v-.12c0-1.94-1.28-3.16-3.18-3.16-1.94 0-3.2 1.22-3.2 3.16v.12c0 1.94 1.26 3.16 3.2 3.16m0-1.16c-1.14 0-1.84-.78-1.84-1.94v-.24c0-1.16.7-1.94 1.84-1.94 1.12 0 1.82.78 1.82 1.94v.24c0 1.16-.7 1.94-1.82 1.94" aria-label="30 %" style="font-size:20px;font-family:&quot;Space Grotesk&quot;;letter-spacing:0;white-space:pre;fill:#000"/><path d="M656.18 370.2c3.24 0 5.3-1.76 5.3-4.32s-1.98-3.6-4.96-4.24l-.46-.1c-1.68-.36-2.46-.86-2.46-1.9s.74-1.68 2.34-1.68 2.58.64 2.58 2.24v.6h2.6v-.6c0-3.04-2.18-4.56-5.18-4.56s-4.94 1.52-4.94 4.08 1.7 3.54 4.6 4.18l.46.1c1.8.4 2.82.8 2.82 1.96 0 1.12-.9 1.92-2.7 1.92s-2.9-.84-2.9-2.52v-.56h-2.6v.56c0 3.04 2.26 4.84 5.5 4.84m11.86 0c2.72 0 3.9-1.54 4.46-2.6l-2.06-1.08c-.34.76-.92 1.48-2.32 1.48s-2.46-.94-2.52-2.3h7.22v-.86c0-3.04-1.9-5.12-4.82-5.12-2.96 0-4.96 2-4.96 5.12v.24c0 3.12 2.02 5.12 5 5.12m-2.42-6.38c.18-1.14 1-1.9 2.36-1.9 1.3 0 2.16.76 2.28 1.9zm14.1 6.38c2.84 0 4.46-1.66 4.98-3.8l-2.44-.58c-.22 1.28-.96 2.14-2.48 2.14s-2.68-1.02-2.68-2.9v-.2c0-1.88 1.16-2.9 2.68-2.9s2.26.92 2.42 2.12l2.44-.52c-.42-2.2-2.08-3.84-4.92-3.84-2.88 0-5.14 1.86-5.14 5.1v.28c0 3.24 2.26 5.1 5.14 5.1m11.78 0c2.96 0 5.2-1.88 5.2-5.08v-.32c0-3.2-2.24-5.08-5.2-5.08s-5.2 1.88-5.2 5.08v.32c0 3.2 2.24 5.08 5.2 5.08m0-2.24c-1.54 0-2.68-1.04-2.68-2.9v-.2c0-1.86 1.12-2.9 2.68-2.9s2.68 1.04 2.68 2.9v.2c0 1.86-1.14 2.9-2.68 2.9m7.52 1.96h2.52v-5.04c0-1.84.9-2.92 2.44-2.92 1.36 0 2.12.74 2.12 2.24v5.72h2.52V364c0-2.46-1.54-4.16-3.86-4.16-1.78 0-2.58.78-2.9 1.46h-.36V360h-2.48zm16.32.28c1.8 0 2.66-.72 3.12-1.48h.36v1.2h2.48v-14h-2.52v5.22h-.36c-.42-.7-1.28-1.42-3.08-1.42-2.4 0-4.48 1.84-4.48 5.08v.32c0 3.24 2.1 5.08 4.48 5.08m.76-2.2c-1.54 0-2.72-1.02-2.72-2.94v-.2c0-1.92 1.16-2.94 2.72-2.94s2.72 1.02 2.72 2.94v.2c0 1.92-1.18 2.94-2.72 2.94m11.08 2.2c2.08 0 2.7-1.12 2.88-1.62h.38v.02c0 .8.72 1.32 1.7 1.32h1.68v-2.08h-.8c-.36 0-.56-.2-.56-.6v-3.7c0-2.48-1.64-3.82-4.24-3.82-2.58 0-3.88 1.3-4.36 2.8l2.32.78c.18-.9.74-1.54 2-1.54 1.28 0 1.84.68 1.84 1.6v.56h-2.72c-2.24 0-3.84 1.06-3.84 3.1s1.6 3.18 3.72 3.18m.44-2.04c-1.08 0-1.64-.5-1.64-1.22s.56-1.14 1.5-1.14h2.54v.2c0 1.32-1 2.16-2.4 2.16m8.04 1.76h2.52v-5.64c0-1.4.92-2.08 2.2-2.08h1.24v-2.24h-1.2c-.92 0-1.64.36-1.92 1.16h-.36V360h-2.48zm9 4h6.24c1.32 0 2.2-.88 2.2-2.24V360h-2.52v5.04c0 1.84-.9 2.92-2.44 2.92-1.36 0-2.12-.74-2.12-2.24V360h-2.52v5.92c0 2.46 1.54 4.16 3.86 4.16 1.78 0 2.58-.78 2.9-1.46h.36v2.5c0 .4-.2.6-.56.6h-5.4z" aria-label="Secondary" style="font-weight:700;font-size:20px;font-family:&quot;Space Grotesk&quot;;letter-spacing:0;white-space:pre;fill:#000"/><path d="M955.14 395.92h1.62v-14h-3.06l-3.34 6.06h1.76l2.72-4.98h.3zm9.62.28c3.2 0 5.22-1.88 5.22-5.64v-3.28c0-3.72-2.02-5.64-5.22-5.64-3.18 0-5.2 1.92-5.2 5.64v3.28c0 3.76 2.02 5.64 5.2 5.64m0-1.46c-2.38 0-3.58-1.5-3.58-4.1v-3.46c0-2.56 1.24-4.08 3.58-4.08s3.6 1.5 3.6 4.08v3.46c0 2.58-1.2 4.1-3.6 4.1m12.86 1.46 11.12-13.7-1.06-.86-11.14 13.7zm1.18-8.1c1.92 0 3.18-1.22 3.18-3.16v-.12c0-1.94-1.26-3.16-3.18-3.16-1.94 0-3.18 1.22-3.18 3.16v.12c0 1.94 1.24 3.16 3.18 3.16m0-1.16c-1.14 0-1.84-.78-1.84-1.94v-.24c0-1.16.7-1.94 1.84-1.94 1.12 0 1.84.78 1.84 1.94v.24c0 1.16-.72 1.94-1.84 1.94m7.7 9.24c1.92 0 3.18-1.22 3.18-3.16v-.12c0-1.94-1.28-3.16-3.18-3.16-1.94 0-3.2 1.22-3.2 3.16v.12c0 1.94 1.26 3.16 3.2 3.16m0-1.16c-1.14 0-1.84-.78-1.84-1.94v-.24c0-1.16.7-1.94 1.84-1.94 1.12 0 1.82.78 1.82 1.94v.24c0 1.16-.7 1.94-1.82 1.94" aria-label="10 %" style="font-size:20px;font-family:&quot;Space Grotesk&quot;;letter-spacing:0;white-space:pre;fill:#000"/><path d="M950.36 369.92h2.72l.76-3.08h5l.76 3.08h2.72l-3.68-14h-4.6zm4.1-5.52 1.7-6.82h.36l1.7 6.82zm14.28 5.8c2.84 0 4.46-1.66 4.98-3.8l-2.44-.58c-.22 1.28-.96 2.14-2.48 2.14s-2.68-1.02-2.68-2.9v-.2c0-1.88 1.16-2.9 2.68-2.9s2.26.92 2.42 2.12l2.44-.52c-.42-2.2-2.08-3.84-4.92-3.84-2.88 0-5.14 1.86-5.14 5.1v.28c0 3.24 2.26 5.1 5.14 5.1m11.72 0c2.84 0 4.46-1.66 4.98-3.8l-2.44-.58c-.22 1.28-.96 2.14-2.48 2.14s-2.68-1.02-2.68-2.9v-.2c0-1.88 1.16-2.9 2.68-2.9s2.26.92 2.42 2.12l2.44-.52c-.42-2.2-2.08-3.84-4.92-3.84-2.88 0-5.14 1.86-5.14 5.1v.28c0 3.24 2.26 5.1 5.14 5.1m11.58 0c2.72 0 3.9-1.54 4.46-2.6l-2.06-1.08c-.34.76-.92 1.48-2.32 1.48s-2.46-.94-2.52-2.3h7.22v-.86c0-3.04-1.9-5.12-4.82-5.12-2.96 0-4.96 2-4.96 5.12v.24c0 3.12 2.02 5.12 5 5.12m-2.42-6.38c.18-1.14 1-1.9 2.36-1.9 1.3 0 2.16.76 2.28 1.9zm9.44 6.1h2.52v-5.04c0-1.84.9-2.92 2.44-2.92 1.36 0 2.12.74 2.12 2.24v5.72h2.52V364c0-2.46-1.54-4.16-3.86-4.16-1.78 0-2.58.78-2.9 1.46h-.36V360h-2.48zm15.84 0h2.8v-2.08h-1.92c-.36 0-.56-.2-.56-.6v-5.16h2.72V360h-2.72v-3.08h-2.52V360h-2.48v2.08h2.48v5.6c0 1.36.88 2.24 2.2 2.24" aria-label="Accent" style="font-weight:700;font-size:20px;font-family:&quot;Space Grotesk&quot;;letter-spacing:0;white-space:pre;fill:#000"/><defs><filter id="a" width="1041" height="341" x="25.5" y="14.5" color-interpolation-filters="sRGB" filterUnits="userSpaceOnUse"><feFlood flood-opacity="0" result="BackgroundImageFix"/><feColorMatrix in="SourceAlpha" result="hardAlpha" values="0 0 0 0 0 0 0 0 0 0 0 0 0 0 0 0 0 0 127 0"/><feMorphology in="SourceAlpha" radius="4" result="effect1_dropShadow_2021_3"/><feOffset dy="3"/><feGaussianBlur stdDeviation="12.25"/><feComposite in2="hardAlpha" operator="out"/><feColorMatrix values="0 0 0 0 0.0470588 0 0 0 0 0.0470588 0 0 0 0 0.0509804 0 0 0 0.1 0"/><feBlend in2="BackgroundImageFix" result="effect1_dropShadow_2021_3"/><feBlend in="SourceGraphic" in2="effect1_dropShadow_2021_3" result="shape"/></filter></defs></svg>