<svg xmlns="http://www.w3.org/2000/svg" width="777" height="397" fill="none"><path fill="#fff" d="M0 0h777v397H0z"/><path d="M80.984 160.952c9.428 0 15.423-5.122 15.423-12.571 0-7.45-5.762-10.476-14.434-12.339l-1.338-.29c-4.89-1.048-7.159-2.503-7.159-5.53 0-3.026 2.153-4.889 6.81-4.889 4.655 0 7.507 1.863 7.507 6.519v1.746h7.566v-1.746c0-8.847-6.344-13.27-15.074-13.27s-14.375 4.423-14.375 11.873 4.947 10.301 13.386 12.164l1.339.29c5.238 1.165 8.206 2.329 8.206 5.704 0 3.26-2.62 5.588-7.857 5.588-5.238 0-8.44-2.445-8.44-7.334v-1.63H64.98v1.63c0 8.847 6.576 14.085 16.005 14.085m21.36 10.825h7.332V156.82h1.048c1.222 2.037 3.725 4.132 8.963 4.132 6.984 0 13.037-5.355 13.037-14.783v-.931c0-9.429-6.111-14.783-13.037-14.783-5.238 0-7.74 2.095-9.08 4.307h-1.047v-3.492h-7.217zm15.131-17.227c-4.54 0-7.915-2.968-7.915-8.556v-.582c0-5.587 3.434-8.555 7.915-8.555 4.482 0 7.915 2.968 7.915 8.555v.582c0 5.588-3.375 8.556-7.915 8.556m30.963 6.402c6.052 0 7.857-3.26 8.38-4.714h1.106v.058c0 2.328 2.095 3.841 4.947 3.841h4.89v-6.053h-2.329c-1.048 0-1.63-.582-1.63-1.746v-10.767c0-7.217-4.772-11.116-12.338-11.116-7.508 0-11.29 3.783-12.688 8.148l6.752 2.27c.523-2.62 2.153-4.482 5.82-4.482 3.724 0 5.354 1.98 5.354 4.656v1.63h-7.915c-6.519 0-11.175 3.085-11.175 9.021s4.656 9.254 10.826 9.254m1.28-5.937c-3.143 0-4.772-1.455-4.772-3.55s1.63-3.317 4.365-3.317h7.391v.582c0 3.841-2.91 6.285-6.984 6.285m36.375 5.937c8.264 0 12.979-4.83 14.492-11.058l-7.1-1.688c-.64 3.725-2.794 6.227-7.217 6.227-4.424 0-7.8-2.968-7.8-8.439v-.582c0-5.47 3.376-8.439 7.8-8.439s6.576 2.678 7.042 6.17l7.1-1.514c-1.222-6.402-6.053-11.174-14.317-11.174-8.38 0-14.957 5.413-14.957 14.841v.815c0 9.428 6.576 14.84 14.957 14.84m33.698 0c7.915 0 11.349-4.482 12.978-7.566l-5.994-3.143c-.99 2.212-2.677 4.307-6.751 4.307s-7.159-2.736-7.334-6.693h21.01v-2.503c0-8.846-5.528-14.899-14.026-14.899-8.613 0-14.433 5.82-14.433 14.9v.698c0 9.079 5.878 14.899 14.55 14.899m-7.042-18.566c.523-3.317 2.91-5.529 6.867-5.529 3.783 0 6.286 2.212 6.635 5.529zm56.104 18.566c6.286 0 8.148-2.736 8.963-4.714h1.048v3.899h7.1v-20.836h-17.227v6.519h9.661v.582c0 4.54-2.444 7.799-8.031 7.799s-8.847-3.725-8.847-9.429v-10.01c0-5.704 3.26-9.312 8.73-9.312s8.148 3.375 8.148 7.682v.466h7.566v-.233c0-9.08-5.703-14.783-15.714-14.783-10.127 0-16.412 5.82-16.412 16.296v9.778c0 10.476 6.635 16.296 15.015 16.296m24.677-.815h7.333v-16.412c0-4.074 2.678-6.053 6.402-6.053h3.609v-6.519h-3.492c-2.677 0-4.773 1.048-5.587 3.376h-1.048v-3.26h-7.217zm35.735.815c8.614 0 15.132-5.471 15.132-14.783v-.931c0-9.312-6.518-14.783-15.132-14.783s-15.132 5.47-15.132 14.783v.931c0 9.312 6.518 14.783 15.132 14.783m0-6.519c-4.481 0-7.799-3.026-7.799-8.439v-.582c0-5.412 3.26-8.439 7.8-8.439 4.539 0 7.798 3.027 7.798 8.44v.581c0 5.413-3.318 8.44-7.799 8.44m32.01 5.704h8.148v-6.053h-5.587c-1.048 0-1.63-.582-1.63-1.746v-15.015h7.915v-6.053h-7.915v-8.963h-7.333v8.963h-7.217v6.053h7.217v16.296c0 3.957 2.56 6.518 6.402 6.518m27.587.815c7.915 0 11.349-4.482 12.978-7.566l-5.994-3.143c-.99 2.212-2.677 4.307-6.751 4.307s-7.159-2.736-7.334-6.693h21.01v-2.503c0-8.846-5.528-14.899-14.026-14.899-8.613 0-14.433 5.82-14.433 14.9v.698c0 9.079 5.878 14.899 14.55 14.899m-7.042-18.566c.523-3.317 2.91-5.529 6.867-5.529 3.783 0 6.286 2.212 6.635 5.529zm39.46 18.566c7.332 0 12.105-3.434 12.105-9.487s-5.122-7.915-11.64-9.079l-1.63-.291c-2.677-.466-4.307-1.222-4.307-3.085 0-1.687 1.514-2.735 4.307-2.735s4.773 1.106 5.413 4.074l6.81-2.095c-1.34-4.656-5.763-7.799-12.223-7.799-6.867 0-11.407 3.201-11.407 8.905s5.005 7.973 11.058 9.079l1.63.29c3.433.641 4.888 1.456 4.888 3.26s-1.63 3.143-5.005 3.143-6.11-1.28-6.867-5.355l-6.752 1.746c.99 6.053 6.053 9.429 13.62 9.429m18.507-.815h7.333v-11.465h1.048l10.126 11.465h9.429l-13.794-14.9 13.328-13.967h-9.545l-9.544 10.65h-1.048v-22.523h-7.333zm46.21 0h21.185c7.275 0 12.339-3.958 12.339-10.767v-.582c0-5.82-3.9-8.09-6.46-8.788v-1.048c2.502-.756 6.227-3.026 6.227-8.672v-.582c0-6.343-4.889-10.301-12.338-10.301h-20.952v6.751h5.354v27.238h-5.354zm13.037-23.978v-9.778h7.1c3.26 0 5.472 1.688 5.472 4.598v.582c0 2.91-2.27 4.598-5.471 4.598zm0 16.994v-10.01h7.217c3.376 0 5.587 1.687 5.587 4.714v.582c0 3.026-2.27 4.714-5.587 4.714zm40.74 7.799c8.614 0 15.132-5.471 15.132-14.783v-.931c0-9.312-6.518-14.783-15.132-14.783-8.613 0-15.132 5.47-15.132 14.783v.931c0 9.312 6.519 14.783 15.132 14.783m0-6.519c-4.481 0-7.799-3.026-7.799-8.439v-.582c0-5.412 3.26-8.439 7.8-8.439 4.539 0 7.798 3.027 7.798 8.44v.581c0 5.413-3.317 8.44-7.799 8.44m21.883 5.704h7.334v-40.74h-7.334zm27.122.815c5.238 0 7.74-2.095 9.079-4.307h1.048v3.492h7.216v-40.74h-7.333v15.19h-1.047c-1.223-2.037-3.725-4.132-8.963-4.132-6.984 0-13.037 5.354-13.037 14.783v.931c0 9.428 6.11 14.783 13.037 14.783m2.211-6.402c-4.481 0-7.915-2.968-7.915-8.556v-.582c0-5.587 3.376-8.555 7.915-8.555 4.54 0 7.916 2.968 7.916 8.555v.582c0 5.588-3.434 8.556-7.916 8.556" aria-label="Space Grotesk Bold" style="font-weight:700;font-size:58.2px;font-family:&quot;Space Grotesk&quot;;letter-spacing:0;white-space:pre;fill:#2d4e44"/><path d="M81.217 86.952c8.846 0 14.608-4.714 14.608-11.931 0-7.159-5.53-9.836-12.571-11.466l-3.027-.756c-5.412-1.339-8.613-2.794-8.613-7.159s3.492-6.81 8.904-6.81c5.587 0 9.661 2.445 9.661 8.323v2.445h4.831v-2.445c0-8.322-6.286-12.57-14.492-12.57S66.783 48.83 66.783 55.697c0 6.868 4.889 9.662 12.106 11.408l3.026.756c5.47 1.28 9.08 2.794 9.08 7.275 0 4.365-3.435 7.566-9.778 7.566-6.228 0-10.593-3.2-10.593-10.01V71.47h-4.83v1.222c0 9.545 6.518 14.259 15.423 14.259m22.29 10.825h4.598V81.656h.815c1.397 2.619 4.423 5.296 10.36 5.296 7.45 0 13.444-5.587 13.444-14.667v-.756c0-9.138-6.053-14.667-13.445-14.667-5.936 0-8.962 2.678-10.476 5.53h-.814v-4.715h-4.482zm14.55-14.9c-5.878 0-10.01-3.957-10.01-10.708v-.524c0-6.751 4.132-10.709 10.01-10.709 5.82 0 9.952 3.958 9.952 10.71v.523c0 6.751-4.074 10.709-9.952 10.709m31.661 4.075c5.878 0 8.264-2.794 9.487-5.064h.698v.291c0 2.445 1.688 3.958 4.249 3.958h4.015v-3.9h-2.619c-1.047 0-1.63-.581-1.63-1.745V67.629c0-6.809-4.306-10.767-11.523-10.767-7.158 0-11 3.9-12.338 8.672l4.307 1.397c.873-3.667 3.375-6.111 7.973-6.111 4.714 0 7.042 2.503 7.042 6.518v2.096h-9.603c-6.11 0-10.709 2.851-10.709 8.613 0 5.704 4.598 8.905 10.651 8.905m.524-3.958c-3.958 0-6.577-1.862-6.577-5.063s2.62-4.773 6.286-4.773h9.428v.64c0 5.82-3.666 9.196-9.137 9.196m36.491 3.958c8.206 0 12.63-5.122 13.852-10.825l-4.54-.99c-.698 4.365-3.608 7.683-9.254 7.683s-9.952-4.016-9.952-10.651v-.524c0-6.635 4.307-10.65 9.952-10.65 5.646 0 8.498 3.492 9.08 7.682l4.481-.931c-.931-5.762-5.413-10.884-13.619-10.884-8.322 0-14.492 5.588-14.492 14.725v.64c0 9.138 6.17 14.725 14.492 14.725m34.746 0c7.624 0 11-4.249 12.745-7.857l-3.957-1.92c-1.397 3.142-3.783 5.703-8.672 5.703-5.645 0-9.72-3.667-9.894-9.778h23.164v-2.095c0-8.672-5.588-14.143-13.677-14.143-8.323 0-14.143 5.937-14.143 14.725v.698c0 8.789 5.762 14.667 14.434 14.667m-9.72-17.635c.699-5.296 4.249-8.38 9.429-8.38 5.121 0 8.671 3.084 9.02 8.38zm60.12 17.635c6.286 0 8.847-2.62 10.07-5.238h.814v4.423h4.423v-19.38h-17.11v4.19h12.338v.99c0 6.46-3.143 10.65-9.952 10.65-6.984 0-11.058-4.482-11.058-12.048v-9.544c0-7.566 4.074-12.048 11-12.048 6.925 0 9.952 4.307 9.952 10.069v.407h4.83v-.29c0-8.847-5.18-14.55-14.782-14.55-9.662 0-15.889 5.761-15.889 16.528v9.312c0 10.767 6.286 16.529 15.365 16.529m24.387-.815h4.597V68.793c0-4.772 2.736-7.042 6.868-7.042h3.667v-4.19h-3.376c-3.434 0-5.47 1.106-6.46 3.608h-.815v-3.492h-4.481zm34.047.815c8.613 0 14.55-5.762 14.55-14.667v-.756c0-8.905-5.937-14.667-14.55-14.667-8.614 0-14.55 5.762-14.55 14.667v.756c0 8.905 5.936 14.667 14.55 14.667m0-4.132c-5.995 0-9.952-4.133-9.952-10.651v-.524c0-6.518 3.899-10.65 9.952-10.65 5.994 0 9.952 4.132 9.952 10.65v.524c0 6.518-3.958 10.65-9.952 10.65m32.126 3.317h7.566v-4.016h-6.344c-1.222 0-1.687-.582-1.687-1.746V61.693h9.312v-4.016h-9.312V47.55h-4.598v10.127h-8.556v4.016h8.556v19.439c0 3.084 1.804 5.005 5.063 5.005m28.285.815c7.624 0 11-4.249 12.746-7.857l-3.958-1.92c-1.396 3.142-3.783 5.703-8.671 5.703-5.646 0-9.72-3.667-9.894-9.778h23.163v-2.095c0-8.672-5.587-14.143-13.677-14.143-8.322 0-14.142 5.937-14.142 14.725v.698c0 8.789 5.761 14.667 14.433 14.667m-9.72-17.635c.7-5.296 4.25-8.38 9.43-8.38 5.12 0 8.671 3.084 9.02 8.38zm42.603 17.635c6.984 0 11.466-3.143 11.466-8.73 0-5.53-4.714-7.392-10.71-8.44l-2.385-.407c-3.609-.64-5.878-1.687-5.878-4.423s2.386-4.248 6.285-4.248c3.841 0 6.693 1.513 7.392 5.587l4.306-1.106c-1.164-5.296-5.296-8.323-11.698-8.323-6.518 0-10.825 3.027-10.825 8.148 0 5.122 4.365 7.392 9.952 8.381l2.386.408c4.133.756 6.635 1.687 6.635 4.597s-2.677 4.715-6.926 4.715c-4.306 0-8.148-1.746-8.962-7.334l-4.365.99c.989 7.042 6.227 10.185 13.327 10.185m19.206-.815h4.598V73.74h.815l13.56 12.397h6.344l-16.237-14.608 15.772-13.852h-6.402l-13.037 11.698h-.815V45.397h-4.598zm46.095 0h4.889V69.434h14.084c2.619 0 3.841 1.28 3.841 3.608v13.095h4.83V72.46c0-3.492-2.036-5.18-4.83-5.296v-.815c3.492-1.106 6.46-4.132 6.46-9.487v-.64c0-6.751-5.296-10.825-12.804-10.825h-16.47zm4.889-21.127V49.82h11.116c5.412 0 8.38 2.677 8.38 7.392v.407c0 4.656-3.084 7.391-8.38 7.391zm45.046 21.942c7.625 0 11-4.249 12.746-7.857l-3.957-1.92c-1.397 3.142-3.783 5.703-8.672 5.703-5.646 0-9.72-3.667-9.894-9.778h23.163v-2.095c0-8.672-5.587-14.143-13.677-14.143-8.322 0-14.142 5.937-14.142 14.725v.698c0 8.789 5.762 14.667 14.433 14.667m-9.719-17.635c.698-5.296 4.249-8.38 9.428-8.38 5.122 0 8.672 3.084 9.021 8.38zm29.74 2.736c0 8.904 5.995 14.375 13.444 14.375 5.995 0 8.963-2.735 10.36-5.296h.815v10.825q0 1.746-1.746 1.746h-18.1v4.074h19.322c3.26 0 5.005-1.92 5.005-5.005V57.677H583.6v4.714h-.815c-1.513-2.793-4.48-5.529-10.476-5.529-7.45 0-13.444 5.471-13.444 14.376zm14.667 10.301c-5.879 0-10.01-3.9-10.01-10.476v-.466c0-6.576 4.131-10.476 10.01-10.476s9.952 3.9 9.952 10.476v.466c0 6.577-4.132 10.476-9.952 10.476m34.978 4.307c5.82 0 8.555-2.62 9.836-5.355h.814v4.831h4.482v-28.46h-4.598v14.317c0 7.043-3.9 10.651-9.312 10.651-4.83 0-7.857-2.444-7.857-8.09V57.677h-4.598v17.227c0 7.625 4.947 11.757 11.233 11.757m24.735-.524h4.598v-40.74h-4.598zm22.989.815c5.878 0 8.264-2.794 9.486-5.064h.699v.291c0 2.445 1.688 3.958 4.248 3.958h4.016v-3.9h-2.619c-1.047 0-1.63-.581-1.63-1.745V67.629c0-6.809-4.306-10.767-11.523-10.767-7.159 0-11 3.9-12.338 8.672l4.306 1.397c.873-3.667 3.376-6.111 7.974-6.111 4.714 0 7.042 2.503 7.042 6.518v2.096h-9.603c-6.11 0-10.709 2.851-10.709 8.613 0 5.704 4.598 8.905 10.65 8.905m.524-3.958c-3.958 0-6.577-1.862-6.577-5.063s2.62-4.773 6.286-4.773h9.428v.64c0 5.82-3.667 9.196-9.137 9.196m24.21 3.143h4.599V68.793c0-4.772 2.735-7.042 6.867-7.042h3.667v-4.19h-3.376c-3.433 0-5.47 1.106-6.46 3.608h-.815v-3.492h-4.481z" aria-label="Space Grotesk Regular" style="font-size:58.2px;font-family:&quot;Space Grotesk&quot;;letter-spacing:0;white-space:pre;fill:#000"/><path d="M74.1 315.59q-3.12 0-5.52-.48-2.34-.48-4.44-1.44v-5.28q1.8.96 4.26 1.74 2.52.78 5.76.78 2.7 0 4.98-.84t3.66-2.58 1.38-4.5q0-2.4-1.62-4.08-1.56-1.74-5.46-3.96-2.28-1.32-4.08-2.82-1.74-1.5-2.76-3.42-.96-1.92-.96-4.74 0-3.96 1.92-6.72 1.92-2.82 5.1-4.26 3.24-1.44 7.08-1.44 3.36 0 5.88.66 2.58.66 4.86 1.86l-2.04 4.56q-1.56-.84-3.9-1.56-2.34-.78-4.8-.78-3.72 0-6.06 1.92t-2.34 5.4q0 1.86.66 3.06t2.04 2.22 3.42 2.22q2.58 1.56 4.5 3.06 1.98 1.5 3.06 3.48 1.14 1.98 1.14 4.92 0 6.42-4.32 9.72-4.26 3.3-11.4 3.3m34.08-.12q-5.58 0-8.82-3.3-3.18-3.36-3.18-9.06 0-3.72 1.02-7.38t3-6.66q2.04-3 5.04-4.8 3.06-1.86 7.02-1.86 5.64 0 8.82 3.36 3.18 3.3 3.18 9.06 0 3.66-1.02 7.32t-3.06 6.66q-1.98 3-4.98 4.86-3 1.8-7.02 1.8m.3-4.38q2.82 0 5.16-1.98 2.4-2.04 3.78-5.82 1.44-3.78 1.44-9.06 0-1.8-.66-3.48-.6-1.74-2.04-2.82-1.44-1.14-3.84-1.14-3.3 0-5.76 2.28-2.4 2.22-3.72 6-1.32 3.72-1.32 8.22 0 3.72 1.8 5.76 1.86 2.04 5.16 2.04m29.94 4.5q-3.66 0-5.88-2.04-2.16-2.04-2.16-5.94 0-1.38.18-2.58.24-1.2.48-2.58l4.2-19.62h5.34l-4.32 20.22q-.54 2.58-.54 4.02 0 1.92.96 3.06.96 1.08 3.24 1.08 2.04 0 4.38-1.44t4.38-4.62q2.1-3.18 3.24-8.46l2.94-13.86h5.22l-6.84 32.16h-4.32l.66-5.94h-.3q-1.14 1.5-2.7 3-1.5 1.5-3.54 2.52t-4.62 1.02m25.08-.6 6.84-32.16h4.32l-.66 5.94h.3q1.26-1.62 2.64-3.12t3.12-2.46 4.02-.96q.84 0 1.74.12.96.06 1.74.3l-1.14 4.74q-1.62-.36-3.06-.36-3 0-5.34 1.98t-3.9 5.04-2.22 6.24l-3.12 14.7zm35.82.6q-5.34 0-8.64-3t-3.3-9q0-4.32 1.14-8.16 1.2-3.9 3.36-6.84 2.22-2.94 5.34-4.62 3.12-1.74 6.96-1.74 2.1 0 4.14.42 2.1.42 3.84 1.14l-1.5 4.38q-1.2-.54-2.88-1.02-1.62-.48-3.54-.48-3.42 0-6 2.34-2.58 2.28-4.02 6.12t-1.44 8.4q0 3.66 1.86 5.7 1.86 1.98 5.22 1.98 2.1 0 3.96-.54 1.92-.6 3.78-1.44v4.44q-1.68.84-3.78 1.38-2.04.54-4.5.54m26.88 0q-5.58 0-8.64-3.24-3-3.3-3-8.88 0-3.84 1.08-7.56 1.14-3.78 3.24-6.84 2.1-3.12 5.04-4.98 3-1.86 6.72-1.86 4.56 0 6.84 1.98 2.34 1.98 2.34 5.52 0 3.18-1.98 5.76-1.92 2.52-6.06 4.08-4.14 1.5-10.74 1.5h-1.02q-.06.54-.12 1.14v1.08q0 3.66 1.74 5.82 1.8 2.1 5.52 2.1 2.28 0 4.32-.6 2.04-.66 4.44-1.86v4.5q-2.28 1.02-4.5 1.68-2.16.66-5.22.66m-5.4-18.78h.42q3.6 0 6.66-.6 3.06-.66 4.92-2.1 1.86-1.5 1.86-3.96 0-1.56-1.08-2.52-1.02-1.02-3.24-1.02-2.88 0-5.58 2.7-2.64 2.64-3.96 7.5m47.52 18.78q-3.12 0-5.52-.48-2.34-.48-4.44-1.44v-5.28q1.8.96 4.26 1.74 2.52.78 5.76.78 2.7 0 4.98-.84t3.66-2.58 1.38-4.5q0-2.4-1.62-4.08-1.56-1.74-5.46-3.96-2.28-1.32-4.08-2.82-1.74-1.5-2.76-3.42-.96-1.92-.96-4.74 0-3.96 1.92-6.72 1.92-2.82 5.1-4.26 3.24-1.44 7.08-1.44 3.36 0 5.88.66 2.58.66 4.86 1.86l-2.04 4.56q-1.56-.84-3.9-1.56-2.34-.78-4.8-.78-3.72 0-6.06 1.92t-2.34 5.4q0 1.86.66 3.06t2.04 2.22 3.42 2.22q2.58 1.56 4.5 3.06 1.98 1.5 3.06 3.48 1.14 1.98 1.14 4.92 0 6.42-4.32 9.72-4.26 3.3-11.4 3.3m33.72 0q-5.58 0-8.64-3.24-3-3.3-3-8.88 0-3.84 1.08-7.56 1.14-3.78 3.24-6.84 2.1-3.12 5.04-4.98 3-1.86 6.72-1.86 4.56 0 6.84 1.98 2.34 1.98 2.34 5.52 0 3.18-1.98 5.76-1.92 2.52-6.06 4.08-4.14 1.5-10.74 1.5h-1.02q-.06.54-.12 1.14v1.08q0 3.66 1.74 5.82 1.8 2.1 5.52 2.1 2.28 0 4.32-.6 2.04-.66 4.44-1.86v4.5q-2.28 1.02-4.5 1.68-2.16.66-5.22.66m-5.4-18.78h.42q3.6 0 6.66-.6 3.06-.66 4.92-2.1 1.86-1.5 1.86-3.96 0-1.56-1.08-2.52-1.02-1.02-3.24-1.02-2.88 0-5.58 2.7-2.64 2.64-3.96 7.5m22.5 18.18 6.84-32.16h4.32l-.66 5.94h.3q1.26-1.62 2.64-3.12t3.12-2.46 4.02-.96q.84 0 1.74.12.96.06 1.74.3l-1.14 4.74q-1.62-.36-3.06-.36-3 0-5.34 1.98t-3.9 5.04-2.22 6.24l-3.12 14.7zm34.98-37.5q-1.26 0-2.1-.72-.78-.78-.78-2.1 0-1.56.9-2.7.96-1.14 2.64-1.14 2.76 0 2.76 2.7 0 1.86-1.08 2.94-1.08 1.02-2.34 1.02m-11.1 37.5 6.84-32.16h5.28l-6.84 32.16zm10.92 14.4q-1.2 0-2.1-.18-.96-.18-1.74-.42v-4.44q.84.24 1.62.42.78.24 1.74.24 2.16 0 3.36-1.8 1.2-1.74 1.92-5.04l6.6-31.32h-5.58l.42-2.22 6-1.98.66-2.88q.9-4.14 2.34-6.42 1.44-2.34 3.54-3.3t5.04-.96q1.5 0 3.06.36 1.56.3 2.58.78l-1.38 4.02q-.84-.3-1.86-.54-1.02-.3-2.16-.3-2.34 0-3.72 1.32t-2.16 5.04l-.72 3.06h6.9l-.78 4.02h-6.9l-6.72 31.92q-1.08 4.98-3.36 7.8t-6.6 2.82m40.02-14.4 9.06-42.84h9.66q6.9 0 9.84 3.12 3 3.06 3 8.04 0 7.26-4.8 11.1t-14.04 3.84h-3.84l-3.54 16.74zm9.84-21.24h3.72q5.76 0 9.12-2.46 3.42-2.46 3.42-7.8 0-3.54-2.04-5.1-1.98-1.62-6.06-1.62h-4.56zm23.4 21.24 6.84-32.16h4.32l-.66 5.94h.3q1.26-1.62 2.64-3.12t3.12-2.46 4.02-.96q.84 0 1.74.12.96.06 1.74.3l-1.14 4.74q-1.62-.36-3.06-.36-3 0-5.34 1.98t-3.9 5.04-2.22 6.24l-3.12 14.7zm35.88.48q-5.58 0-8.82-3.3-3.18-3.36-3.18-9.06 0-3.72 1.02-7.38t3-6.66q2.04-3 5.04-4.8 3.06-1.86 7.02-1.86 5.64 0 8.82 3.36 3.18 3.3 3.18 9.06 0 3.66-1.02 7.32t-3.06 6.66q-1.98 3-4.98 4.86-3 1.8-7.02 1.8m.3-4.38q2.82 0 5.16-1.98 2.4-2.04 3.78-5.82 1.44-3.78 1.44-9.06 0-1.8-.66-3.48-.6-1.74-2.04-2.82-1.44-1.14-3.84-1.14-3.3 0-5.76 2.28-2.4 2.22-3.72 6-1.32 3.72-1.32 8.22 0 3.72 1.8 5.76 1.86 2.04 5.16 2.04m33 3.9.6-2.94 5.1-1.2 7.32-34.56-4.56-1.14.6-3h15l-.6 3-5.16 1.14-7.32 34.56 4.62 1.2-.6 2.94zm31.74.6q-3.24 0-5.46-1.56t-2.22-5.46q0-1.92.54-4.26l3.66-17.46h-4.98l.48-2.4 5.4-2.28 3.72-6.66h3.12l-1.62 7.32h8.1l-.84 4.02h-8.04l-3.72 17.52q-.18.78-.36 1.8-.18.96-.18 1.8 0 1.38.72 2.34.78.96 2.46.96 1.08 0 2.1-.18 1.02-.24 2.16-.6v4.02q-.72.36-2.22.72t-2.82.36m20.4 0q-3.9 0-6.3-2.76-2.4-2.82-2.4-8.22 0-4.5 1.14-8.52 1.2-4.08 3.3-7.14 2.1-3.12 4.98-4.92t6.36-1.8q3.18 0 5.16 1.68t2.94 3.9h.3l1.92-4.98h4.02l-6.84 32.16h-4.2l.78-5.94h-.24q-2.1 2.64-4.86 4.62-2.7 1.92-6.06 1.92m1.74-4.38q2.16 0 4.32-1.62t3.84-4.32q1.74-2.76 2.7-6.24.42-1.68.6-3.18t.18-2.76q0-2.82-1.56-4.62t-4.2-1.8q-2.34 0-4.32 1.5-1.98 1.44-3.48 4.02-1.5 2.52-2.34 5.76-.78 3.24-.78 6.78 0 3.24 1.32 4.86t3.72 1.62m22.38 3.78 9.72-45.6h5.28l-9.72 45.6zm26.64-37.5q-1.26 0-2.1-.72-.78-.78-.78-2.1 0-1.56.9-2.7.96-1.14 2.64-1.14 2.76 0 2.76 2.7 0 1.86-1.08 2.94-1.08 1.02-2.34 1.02m-11.1 37.5 6.84-32.16h5.28l-6.84 32.16zm28.62.6q-5.34 0-8.64-3t-3.3-9q0-4.32 1.14-8.16 1.2-3.9 3.36-6.84 2.22-2.94 5.34-4.62 3.12-1.74 6.96-1.74 2.1 0 4.14.42 2.1.42 3.84 1.14l-1.5 4.38q-1.2-.54-2.88-1.02-1.62-.48-3.54-.48-3.42 0-6 2.34-2.58 2.28-4.02 6.12t-1.44 8.4q0 3.66 1.86 5.7 1.86 1.98 5.22 1.98 2.1 0 3.96-.54 1.92-.6 3.78-1.44v4.44q-1.68.84-3.78 1.38-2.04.54-4.5.54" aria-label="Source Serif Pro Italic" style="font-style:italic;font-size:60px;font-family:&quot;Source Serif Pro&quot;;letter-spacing:0;white-space:pre;fill:#2d4e44"/><path d="M93.12 228.53q0 5.7-4.14 8.88t-11.16 3.18q-3.6 0-6.66-.54t-5.1-1.5v-5.16q2.16.96 5.34 1.74 3.24.78 6.66.78 4.74 0 7.2-1.86t2.46-5.04q0-2.1-.9-3.54t-3.12-2.64-6.06-2.64q-5.52-1.98-8.28-4.86t-2.76-7.86q0-3.36 1.74-5.82t4.8-3.78 7.14-1.32q3.48 0 6.42.66t5.4 1.74l-1.68 4.62q-2.22-.96-4.86-1.62t-5.4-.66q-4.02 0-6.06 1.74-2.04 1.68-2.04 4.5 0 2.16.9 3.6t2.94 2.64q2.04 1.14 5.52 2.4 3.78 1.38 6.36 3 2.64 1.56 3.96 3.78 1.38 2.22 1.38 5.58m35.88-4.68q0 7.98-4.08 12.36-4.02 4.38-10.92 4.38-4.26 0-7.62-1.92-3.3-1.98-5.22-5.7-1.92-3.78-1.92-9.12 0-7.98 3.96-12.3 4.02-4.32 10.98-4.32 4.32 0 7.68 1.98 3.36 1.92 5.22 5.64 1.92 3.66 1.92 9m-24.3 0q0 5.7 2.22 9.06 2.28 3.3 7.2 3.3 4.86 0 7.14-3.3 2.28-3.36 2.28-9.06t-2.28-8.94-7.2-3.24-7.14 3.24-2.22 8.94m59.52-16.02v32.16h-4.32l-.78-4.26h-.24q-1.56 2.52-4.32 3.72-2.76 1.14-5.88 1.14-5.82 0-8.76-2.76-2.94-2.82-2.94-8.94v-21.06h5.34v20.7q0 7.68 7.14 7.68 5.34 0 7.38-3 2.1-3 2.1-8.64v-16.74zm25.2-.6q.9 0 1.92.12 1.02.06 1.86.24l-.66 4.86q-.78-.18-1.74-.3t-1.74-.12q-2.46 0-4.62 1.38-2.16 1.32-3.48 3.78-1.26 2.4-1.26 5.64v17.16h-5.28v-32.16h4.32l.6 5.88h.24q1.5-2.64 3.96-4.56 2.52-1.92 5.88-1.92m21.48 33.36q-4.32 0-7.62-1.74t-5.22-5.4q-1.86-3.66-1.86-9.36 0-5.94 1.92-9.66 1.98-3.72 5.4-5.46t7.74-1.74q2.4 0 4.68.54 2.34.48 3.78 1.2l-1.62 4.38q-1.44-.54-3.36-1.02t-3.6-.48q-9.48 0-9.48 12.18 0 5.82 2.28 8.94 2.34 3.06 6.9 3.06 2.58 0 4.62-.54t3.72-1.32v4.68q-1.62.84-3.6 1.26-1.92.48-4.68.48m28.32-33.36q4.08 0 7.08 1.8t4.56 5.1q1.62 3.24 1.62 7.62v3.18h-22.02q.12 5.46 2.76 8.34 2.7 2.82 7.5 2.82 3.06 0 5.4-.54 2.4-.6 4.92-1.68v4.62q-2.46 1.08-4.86 1.56-2.4.54-5.7.54-4.62 0-8.1-1.86t-5.46-5.52q-1.92-3.66-1.92-9.06 0-5.28 1.74-9.06 1.8-3.78 4.98-5.82 3.24-2.04 7.5-2.04m-.06 4.32q-3.78 0-6 2.46-2.16 2.4-2.58 6.72h16.38q-.06-4.08-1.92-6.6-1.86-2.58-5.88-2.58m62.1 16.98q0 5.7-4.14 8.88t-11.16 3.18q-3.6 0-6.66-.54t-5.1-1.5v-5.16q2.16.96 5.34 1.74 3.24.78 6.66.78 4.74 0 7.2-1.86t2.46-5.04q0-2.1-.9-3.54t-3.12-2.64-6.06-2.64q-5.52-1.98-8.28-4.86t-2.76-7.86q0-3.36 1.74-5.82t4.8-3.78 7.14-1.32q3.48 0 6.42.66t5.4 1.74l-1.68 4.62q-2.22-.96-4.86-1.62t-5.4-.66q-4.02 0-6.06 1.74-2.04 1.68-2.04 4.5 0 2.16.9 3.6t2.94 2.64q2.04 1.14 5.52 2.4 3.78 1.38 6.36 3 2.64 1.56 3.96 3.78 1.38 2.22 1.38 5.58m20.34-21.3q4.08 0 7.08 1.8t4.56 5.1q1.62 3.24 1.62 7.62v3.18h-22.02q.12 5.46 2.76 8.34 2.7 2.82 7.5 2.82 3.06 0 5.4-.54 2.4-.6 4.92-1.68v4.62q-2.46 1.08-4.86 1.56-2.4.54-5.7.54-4.62 0-8.1-1.86t-5.46-5.52q-1.92-3.66-1.92-9.06 0-5.28 1.74-9.06 1.8-3.78 4.98-5.82 3.24-2.04 7.5-2.04m-.06 4.32q-3.78 0-6 2.46-2.16 2.4-2.58 6.72h16.38q-.06-4.08-1.92-6.6-1.86-2.58-5.88-2.58m36.48-4.32q.9 0 1.92.12 1.02.06 1.86.24l-.66 4.86q-.78-.18-1.74-.3t-1.74-.12q-2.46 0-4.62 1.38-2.16 1.32-3.48 3.78-1.26 2.4-1.26 5.64v17.16h-5.28v-32.16h4.32l.6 5.88h.24q1.5-2.64 3.96-4.56 2.52-1.92 5.88-1.92m12.48-11.46q1.2 0 2.1.84.96.78.96 2.52t-.96 2.58q-.9.78-2.1.78-1.32 0-2.22-.78-.9-.84-.9-2.58t.9-2.52q.9-.84 2.22-.84m2.58 12.06v32.16h-5.28v-32.16zm25.02 4.08H390v28.08h-5.28v-28.08h-5.64v-2.46l5.64-1.8v-1.86q0-6.24 2.7-8.94 2.76-2.76 7.74-2.76 1.86 0 3.48.36 1.62.3 2.76.72l-1.38 4.14q-.96-.3-2.22-.6t-2.58-.3q-2.64 0-3.96 1.8-1.26 1.74-1.26 5.52v2.1h8.1zm33.48-14.76q8.4 0 12.24 3.3t3.84 9.3q0 3.54-1.62 6.66-1.56 3.06-5.34 4.98-3.72 1.92-10.14 1.92h-4.92v16.68h-5.4v-42.84zm-.48 4.62h-5.46v16.92h4.32q6.12 0 9.12-1.98t3-6.72q0-4.14-2.7-6.18-2.64-2.04-8.28-2.04m39.72 5.46q.9 0 1.92.12 1.02.06 1.86.24l-.66 4.86q-.78-.18-1.74-.3t-1.74-.12q-2.46 0-4.62 1.38-2.16 1.32-3.48 3.78-1.26 2.4-1.26 5.64v17.16h-5.28v-32.16h4.32l.6 5.88h.24q1.5-2.64 3.96-4.56 2.52-1.92 5.88-1.92m36.54 16.62q0 7.98-4.08 12.36-4.02 4.38-10.92 4.38-4.26 0-7.62-1.92-3.3-1.98-5.22-5.7-1.92-3.78-1.92-9.12 0-7.98 3.96-12.3 4.02-4.32 10.98-4.32 4.32 0 7.68 1.98 3.36 1.92 5.22 5.64 1.92 3.66 1.92 9m-24.3 0q0 5.7 2.22 9.06 2.28 3.3 7.2 3.3 4.86 0 7.14-3.3 2.28-3.36 2.28-9.06t-2.28-8.94-7.2-3.24-7.14 3.24-2.22 8.94m60.78-26.7q7.98 0 11.76 3.06 3.84 3 3.84 9.12 0 3.42-1.26 5.7t-3.24 3.66q-1.92 1.38-4.08 2.1l11.76 19.2h-6.3l-10.38-17.7h-8.52v17.7h-5.4v-42.84zm-.3 4.68h-6.12v15.9h6.42q5.22 0 7.62-2.04 2.4-2.1 2.4-6.12 0-4.2-2.52-5.94-2.52-1.8-7.8-1.8m37.5 5.4q4.08 0 7.08 1.8t4.56 5.1q1.62 3.24 1.62 7.62v3.18h-22.02q.12 5.46 2.76 8.34 2.7 2.82 7.5 2.82 3.06 0 5.4-.54 2.4-.6 4.92-1.68v4.62q-2.46 1.08-4.86 1.56-2.4.54-5.7.54-4.62 0-8.1-1.86t-5.46-5.52q-1.92-3.66-1.92-9.06 0-5.28 1.74-9.06 1.8-3.78 4.98-5.82 3.24-2.04 7.5-2.04m-.06 4.32q-3.78 0-6 2.46-2.16 2.4-2.58 6.72h16.38q-.06-4.08-1.92-6.6-1.86-2.58-5.88-2.58m32.88-4.32q3.18 0 5.7 1.2 2.58 1.2 4.38 3.66h.3l.72-4.26h4.2v32.7q0 6.9-3.54 10.38-3.48 3.48-10.86 3.48-7.08 0-11.58-2.04v-4.86q4.74 2.52 11.88 2.52 4.14 0 6.48-2.46 2.4-2.4 2.4-6.6v-1.26q0-.72.06-2.04.06-1.38.12-1.92h-.24q-3.24 4.86-9.96 4.86-6.24 0-9.78-4.38-3.48-4.38-3.48-12.24 0-7.68 3.48-12.18 3.54-4.56 9.72-4.56m.72 4.44q-4.02 0-6.24 3.24-2.22 3.18-2.22 9.12t2.16 9.12q2.16 3.12 6.42 3.12 4.86 0 7.08-2.58 2.22-2.64 2.22-8.46v-1.26q0-6.54-2.28-9.42t-7.14-2.88m51.66-3.84v32.16h-4.32l-.78-4.26h-.24q-1.56 2.52-4.32 3.72-2.76 1.14-5.88 1.14-5.82 0-8.76-2.76-2.94-2.82-2.94-8.94v-21.06h5.34v20.7q0 7.68 7.14 7.68 5.34 0 7.38-3 2.1-3 2.1-8.64v-16.74zm15.48 32.16h-5.28v-45.6h5.28zm22.38-32.7q5.88 0 8.7 2.58t2.82 8.22v21.9h-3.84l-1.02-4.56h-.24q-2.1 2.64-4.44 3.9t-6.36 1.26q-4.38 0-7.26-2.28-2.88-2.34-2.88-7.26 0-4.8 3.78-7.38 3.78-2.64 11.64-2.88l5.46-.18v-1.92q0-4.02-1.74-5.58t-4.92-1.56q-2.52 0-4.8.78-2.28.72-4.26 1.68l-1.62-3.96q2.1-1.14 4.98-1.92 2.88-.84 6-.84m6.3 16.98-4.74.18q-6 .24-8.34 1.92-2.28 1.68-2.28 4.74 0 2.7 1.62 3.96 1.68 1.26 4.26 1.26 4.02 0 6.72-2.22 2.76-2.28 2.76-6.96zm30.18-17.04q.9 0 1.92.12 1.02.06 1.86.24l-.66 4.86q-.78-.18-1.74-.3t-1.74-.12q-2.46 0-4.62 1.38-2.16 1.32-3.48 3.78-1.26 2.4-1.26 5.64v17.16h-5.28v-32.16h4.32l.6 5.88h.24q1.5-2.64 3.96-4.56 2.52-1.92 5.88-1.92" aria-label="Source Serif Pro Regular" style="font-size:60px;font-family:&quot;Source Serif Pro&quot;;letter-spacing:0;white-space:pre;fill:#000"/></svg>